<?xml version="1.0" standalone="no"?>
<!DOCTYPE svg PUBLIC "-//W3C//DTD SVG 20010904//EN"
 "http://www.w3.org/TR/2001/REC-SVG-20010904/DTD/svg10.dtd">
<svg version="1.0" xmlns="http://www.w3.org/2000/svg"
 width="500.000000pt" height="500.000000pt" viewBox="0 0 500.000000 500.000000"
 preserveAspectRatio="xMidYMid meet">
<metadata>
Created by potrace 1.11, written by Peter Selinger 2001-2013
</metadata>
<g transform="translate(0.000000,500.000000) scale(0.100000,-0.100000)"
fill="#000000" stroke="none">
<path d="M2260 4400 c-8 -5 -10 -10 -5 -10 6 0 17 5 25 10 8 5 11 10 5 10 -5
0 -17 -5 -25 -10z"/>
<path d="M2541 4403 c0 -6 2 -19 5 -28 6 -15 8 -14 25 1 15 14 21 14 34 4 8
-7 15 -8 15 -2 0 15 -32 24 -44 12 -15 -15 -24 -12 -29 8 -3 9 -5 12 -6 5z"/>
<path d="M2701 4396 c-12 -15 -28 -16 -48 -3 -12 8 -17 2 -14 -15 1 -9 -12
-11 -46 -9 -11 1 -24 -3 -28 -9 -3 -5 -12 -7 -18 -3 -20 13 -50 14 -57 2 -5
-7 -9 -5 -13 6 -4 9 -3 14 1 11 5 -3 9 1 9 8 0 11 -4 12 -18 3 -13 -8 -15 -15
-8 -23 7 -8 6 -15 -2 -20 -7 -4 -9 -3 -5 4 3 6 1 14 -5 18 -6 3 -15 0 -20 -7
-5 -8 -9 -9 -9 -3 0 5 6 16 13 24 10 12 9 12 -5 2 -10 -8 -19 -9 -22 -3 -3 5
-3 11 1 14 5 2 1 2 -7 -1 -8 -2 -20 -5 -26 -5 -6 0 -9 -10 -7 -21 4 -18 2 -18
-12 4 -9 14 -14 17 -11 7 3 -11 2 -15 -4 -12 -6 3 -10 0 -10 -7 0 -10 -2 -10
-9 1 -7 11 -9 11 -13 0 -3 -9 -6 -9 -11 3 -4 13 -1 16 14 13 10 -2 19 0 19 6
0 5 -10 7 -22 5 -13 -3 -23 -5 -23 -6 0 -9 -82 -4 -87 4 -5 7 -8 6 -8 -2 0 -8
-5 -10 -12 -5 -25 15 -36 11 -30 -11 5 -18 7 -18 10 -3 2 9 8 15 13 11 5 -3 6
-10 3 -16 -4 -7 -2 -8 4 -4 7 4 12 3 12 -2 0 -17 -25 -20 -45 -6 -10 8 -15 14
-11 14 5 0 2 7 -5 16 -12 15 -15 14 -30 -5 -12 -15 -19 -17 -22 -9 -4 8 -6 9
-6 2 -1 -14 28 -40 30 -28 1 5 2 14 3 19 0 6 6 11 11 12 6 0 9 -4 7 -9 -1 -6
5 -17 15 -24 17 -13 17 -14 -1 -7 -15 5 -17 3 -11 -8 7 -11 6 -12 -6 -2 -12
10 -18 10 -29 0 -8 -8 -11 -8 -7 -1 4 7 0 15 -9 18 -12 4 -14 1 -9 -13 3 -11
0 -23 -6 -27 -9 -5 -10 -2 -6 9 3 10 2 17 -4 17 -6 0 -7 5 -3 12 4 6 3 8 -4 4
-5 -3 -12 -3 -15 1 -2 5 -2 1 1 -7 7 -25 13 -65 10 -60 -2 3 -10 14 -18 24
-13 18 -13 19 0 11 13 -7 13 -6 2 7 -13 16 -56 33 -47 18 8 -12 -33 -43 -46
-34 -8 4 -10 3 -5 -5 5 -8 0 -10 -18 -7 -15 3 -24 1 -21 -5 4 -5 1 -9 -4 -9
-6 0 -11 5 -11 12 0 6 -2 9 -5 6 -3 -3 -3 -13 1 -22 5 -13 9 -14 20 -5 10 8
14 8 14 0 0 -6 -5 -11 -11 -11 -5 0 -7 -6 -3 -12 5 -8 1 -8 -10 1 -14 12 -19
12 -26 2 -5 -8 -10 -9 -14 -3 -3 6 0 13 6 16 11 5 11 7 0 12 -6 3 -9 11 -6 16
4 7 2 8 -4 4 -6 -4 -9 -12 -6 -19 6 -16 -43 -17 -66 -3 -12 8 -13 7 -3 -6 7
-8 11 -17 8 -20 -7 -7 29 -3 42 5 6 4 13 0 17 -8 3 -8 0 -17 -6 -21 -7 -4 -8
-3 -4 4 10 16 -7 15 -23 0 -11 -11 -12 -10 -7 0 6 10 1 11 -18 6 -21 -5 -25
-3 -20 9 4 11 0 15 -15 14 -14 -1 -17 -5 -11 -13 6 -6 6 -15 2 -19 -4 -5 -2
-5 5 -1 6 3 14 2 18 -4 4 -6 10 -8 14 -6 4 3 8 -1 8 -9 0 -13 -3 -13 -17 0
-16 15 -30 11 -30 -7 0 -5 6 -6 13 -2 7 5 7 1 -3 -12 -8 -10 -15 -21 -17 -23
-1 -2 -2 6 -2 18 -1 11 -1 30 -2 41 0 11 -5 18 -10 14 -6 -3 -8 -16 -5 -27 3
-13 -1 -25 -12 -33 -21 -16 -32 -17 -32 -3 0 5 5 7 12 3 7 -5 8 -3 3 6 -6 9
-4 11 5 5 9 -6 11 -4 5 5 -5 9 -4 11 3 6 8 -5 10 -1 5 10 -4 11 -8 13 -11 6
-2 -7 -8 -10 -13 -6 -5 3 -8 0 -7 -8 2 -7 -5 -12 -14 -12 -10 1 -15 -2 -12 -7
5 -8 -3 -11 -23 -8 -3 0 -10 -7 -15 -16 -8 -13 -12 -14 -26 -3 -15 12 -16 11
-3 -4 7 -10 17 -15 22 -12 5 3 9 0 9 -5 0 -14 -10 -13 -40 4 -38 22 -49 18
-12 -5 39 -24 43 -34 5 -15 -18 10 -31 11 -39 4 -9 -7 -14 -6 -17 3 -2 7 -3 5
-2 -4 2 -10 -3 -18 -12 -18 -8 0 -11 5 -7 12 4 7 3 8 -4 4 -14 -8 -4 -36 11
-33 6 1 19 11 29 22 10 12 17 15 18 8 0 -7 -4 -13 -10 -13 -17 0 -11 -18 8
-24 11 -3 10 -4 -5 -3 -12 1 -22 -2 -22 -8 1 -5 4 -9 8 -8 4 1 7 -7 7 -18 0
-19 -1 -18 -18 3 -14 18 -18 19 -18 7 0 -26 -28 -31 -42 -9 -7 11 -16 20 -21
20 -4 0 -6 -4 -2 -9 3 -5 -4 -13 -16 -16 -16 -6 -20 -13 -17 -36 4 -23 2 -26
-9 -18 -7 6 -10 16 -6 22 3 6 1 7 -5 3 -7 -4 -12 -2 -12 4 0 6 -5 8 -11 4 -8
-5 -6 -10 5 -16 9 -5 16 -14 16 -20 0 -6 -12 -2 -27 7 -16 10 -25 14 -21 10 9
-10 -31 -47 -43 -39 -5 3 -9 0 -9 -6 0 -7 7 -9 16 -6 19 7 47 -12 38 -25 -3
-5 -10 -6 -16 -3 -6 4 -8 -2 -3 -17 5 -19 4 -21 -4 -9 -6 8 -11 10 -11 4 0 -6
-11 -11 -25 -11 -14 0 -25 3 -25 8 0 5 -4 9 -10 9 -5 0 -7 -7 -4 -15 4 -8 2
-15 -4 -15 -6 0 -13 6 -15 13 -4 9 -6 9 -6 -1 -1 -8 -6 -10 -13 -6 -10 6 -10
4 0 -8 11 -14 10 -17 -10 -24 -13 -4 -30 -7 -38 -5 -18 4 -12 -2 18 -18 18 -9
22 -9 20 1 -2 7 3 12 10 11 6 -2 12 1 12 7 0 14 37 31 54 24 9 -3 16 -11 16
-17 0 -7 -4 -7 -12 1 -17 17 -28 15 -22 -5 5 -15 4 -15 -4 -4 -9 13 -14 11
-30 -9 -11 -13 -18 -31 -15 -40 4 -13 3 -13 -5 -1 -6 8 -23 16 -39 18 -22 2
-24 1 -9 -6 14 -5 16 -10 8 -15 -7 -4 -17 -4 -23 0 -8 5 -8 1 0 -14 6 -11 16
-23 23 -25 8 -3 6 -6 -5 -6 -10 -1 -16 -5 -13 -10 7 -10 -22 -23 -34 -16 -5 3
-8 -7 -6 -22 2 -15 -2 -34 -10 -41 -17 -15 -18 -8 -3 20 7 14 8 23 1 30 -6 6
-8 18 -5 27 4 14 3 14 -6 1 -6 -8 -16 -15 -23 -15 -7 0 -13 -10 -13 -22 0 -11
-3 -24 -7 -28 -10 -10 2 -36 14 -29 6 4 6 9 -2 14 -9 6 -6 11 11 20 19 10 22
10 12 0 -6 -7 -9 -18 -7 -25 7 -16 -27 -29 -36 -15 -12 20 -21 -20 -9 -41 6
-11 8 -25 5 -32 -2 -7 -5 -5 -5 5 -1 9 -6 20 -13 24 -6 4 -8 3 -5 -3 4 -6 0
-14 -9 -17 -12 -5 -15 -2 -10 9 3 9 2 13 -4 10 -19 -12 -11 -37 9 -30 11 3 21
0 24 -9 4 -9 0 -13 -11 -11 -9 1 -25 -7 -34 -19 -14 -16 -20 -18 -27 -8 -6 11
-9 10 -15 -3 -9 -24 -7 -32 4 -15 7 11 10 11 10 2 0 -7 4 -11 9 -7 5 3 12 1
15 -4 4 -5 -2 -8 -11 -7 -10 2 -28 -1 -40 -7 -21 -9 -21 -11 -6 -22 17 -13 28
-49 12 -39 -5 3 -7 10 -4 15 3 5 -2 6 -11 2 -10 -4 -15 -2 -11 4 3 5 0 10 -8
10 -12 0 -12 -3 -2 -16 10 -12 9 -14 -6 -8 -11 4 -16 3 -12 -4 4 -6 13 -8 21
-5 21 8 27 -12 10 -36 -12 -16 -13 -25 -4 -35 9 -11 8 -13 -2 -11 -7 2 -15 -3
-18 -11 -3 -10 0 -11 9 -5 12 7 12 5 1 -9 -8 -9 -17 -16 -20 -15 -4 0 -14 0
-22 -1 -12 -1 -12 -3 -2 -10 11 -6 9 -9 -5 -13 -12 -3 -20 0 -20 8 0 8 3 14 7
14 8 0 10 39 1 44 -4 3 -8 -5 -8 -17 -1 -12 -9 -26 -17 -32 -12 -10 -12 -13 4
-23 19 -12 17 -42 -2 -42 -6 0 -4 7 3 17 13 15 12 15 -9 2 -12 -8 -17 -16 -12
-17 7 -3 4 -9 -5 -16 -15 -10 -14 -12 4 -12 11 0 17 4 15 8 -3 4 0 8 5 8 13 0
14 -13 4 -24 -13 -12 -10 -30 7 -44 13 -11 12 -11 -7 -2 -18 8 -24 7 -33 -10
-6 -11 -15 -18 -20 -15 -4 3 -3 -6 3 -19 13 -27 20 -26 22 2 0 9 5 17 10 17 6
0 8 -4 6 -10 -2 -5 -3 -18 -3 -27 0 -11 -6 -15 -20 -13 -14 3 -18 0 -14 -10 7
-19 -4 -19 -31 0 -16 11 -24 12 -29 4 -4 -7 -3 -9 3 -6 12 8 36 -17 26 -26 -3
-4 -13 -1 -22 6 -14 10 -14 10 -3 -5 9 -11 10 -18 2 -23 -8 -5 -8 -11 0 -20 7
-9 6 -16 -3 -24 -8 -6 -16 -8 -20 -5 -8 8 -3 -19 7 -34 4 -7 5 -16 1 -20 -3
-3 -10 0 -15 8 -7 12 -9 10 -8 -6 1 -12 9 -21 18 -20 9 1 15 -7 15 -19 0 -11
5 -23 10 -27 6 -5 6 -8 -1 -8 -14 0 -14 -31 0 -50 9 -13 9 -13 -5 -3 -9 7 -19
9 -24 5 -4 -4 -2 4 5 18 7 14 9 22 5 18 -5 -4 -15 -2 -24 5 -14 10 -14 10 -3
-4 14 -18 13 -40 -3 -51 -6 -5 -6 -8 1 -8 7 0 11 -14 10 -35 -1 -19 3 -35 9
-35 5 0 4 -4 -3 -9 -7 -4 -14 -21 -16 -37 -1 -16 -6 -35 -10 -43 -7 -10 -4
-11 13 -2 11 7 21 16 21 22 0 6 -4 8 -8 5 -5 -3 -9 1 -9 9 0 8 4 12 9 9 4 -3
5 2 2 10 -3 9 -2 16 3 16 5 0 9 -24 9 -53 -1 -34 -5 -54 -13 -54 -6 0 -9 7 -6
16 4 13 3 13 -5 2 -6 -8 -8 -21 -4 -29 4 -11 1 -13 -8 -7 -9 5 -11 4 -6 -3 4
-7 1 -12 -6 -12 -10 0 -9 -3 2 -9 16 -11 33 -4 25 9 -9 14 16 23 28 11 9 -9 8
-11 -6 -5 -10 3 -17 3 -15 -2 4 -16 -13 -54 -22 -49 -5 3 -11 1 -14 -4 -7 -11
13 -9 32 3 7 4 16 5 19 2 4 -3 1 -6 -5 -6 -7 0 -12 -7 -12 -15 0 -8 5 -15 12
-15 6 0 8 -3 5 -6 -4 -4 -13 -1 -21 5 -12 10 -13 8 -9 -10 4 -15 2 -20 -5 -15
-6 3 -14 2 -17 -4 -4 -6 -3 -10 2 -9 23 4 33 -3 33 -22 0 -17 3 -19 14 -10 11
9 16 9 22 0 4 -7 3 -9 -3 -6 -6 4 -16 0 -23 -8 -9 -11 -8 -19 4 -37 20 -28 21
-43 2 -26 -8 7 -12 16 -10 20 2 4 -1 10 -7 13 -5 4 -8 12 -6 19 3 6 -1 20 -9
31 -8 10 -14 14 -14 8 0 -7 4 -14 9 -17 5 -3 7 -15 4 -26 -3 -11 -1 -20 4 -20
5 0 9 -16 10 -35 0 -19 -3 -32 -7 -30 -5 3 -11 1 -14 -4 -4 -5 5 -8 19 -6 14
1 23 0 20 -3 -3 -3 1 -15 9 -28 8 -12 12 -25 9 -28 -16 -15 -9 -37 15 -58 15
-11 19 -18 10 -15 -12 4 -16 1 -15 -14 1 -10 10 -22 20 -25 13 -4 15 -9 7 -19
-7 -9 -6 -16 7 -26 15 -12 16 -12 10 3 -3 10 -2 20 2 22 4 3 8 -9 7 -26 -1
-18 -8 -33 -16 -35 -12 -4 -12 -3 -1 5 9 7 10 12 2 16 -10 6 -13 0 -10 -20 0
-4 -4 -10 -10 -13 -6 -4 -3 -11 9 -19 14 -8 21 -9 26 0 4 6 3 8 -4 4 -6 -3
-13 -3 -15 2 -3 4 6 12 19 19 13 6 24 7 24 2 0 -5 -5 -9 -11 -9 -5 0 -8 -4 -4
-9 3 -5 1 -13 -5 -16 -16 -10 9 -37 27 -31 8 4 11 1 8 -5 -4 -6 -13 -8 -21 -5
-8 3 -14 1 -14 -5 0 -6 -6 -7 -12 -4 -7 4 1 -5 17 -19 32 -28 30 -31 -9 -16
-14 5 -26 7 -26 5 0 -3 11 -10 25 -15 31 -12 33 -30 3 -24 -21 4 -21 4 -3 -4
11 -5 27 -7 35 -4 12 4 13 2 3 -9 -15 -16 -17 -33 -3 -24 6 3 10 1 10 -5 0 -6
4 -9 8 -6 5 3 9 -1 10 -9 1 -8 3 -22 4 -30 1 -16 13 -20 21 -7 2 4 2 2 1 -5
-2 -6 2 -13 8 -15 6 -2 8 -9 4 -16 -3 -6 -14 -8 -22 -5 -13 5 -13 8 -2 15 10
8 9 9 -4 5 -12 -4 -16 -1 -13 14 2 11 0 17 -4 14 -5 -2 -8 3 -7 12 0 9 -5 17
-12 19 -7 1 -8 0 -2 -3 17 -8 11 -22 -8 -18 -11 2 -19 -3 -19 -11 0 -9 4 -11
12 -4 13 11 40 -11 29 -23 -9 -9 22 -37 31 -29 5 4 5 -2 1 -13 -6 -17 -4 -17
18 4 27 26 37 20 11 -5 -8 -9 -15 -20 -15 -27 0 -6 6 -3 13 7 13 17 14 18 20
2 4 -10 3 -15 -3 -11 -6 3 -7 -1 -4 -10 5 -12 9 -13 20 -4 8 7 17 9 21 5 3 -3
1 -6 -6 -6 -7 0 -10 -4 -7 -8 3 -5 -2 -22 -10 -38 -10 -18 -10 -24 -3 -16 7 6
18 12 23 12 6 -1 0 -10 -13 -20 -25 -22 -21 -26 10 -10 15 8 19 8 17 -2 -2 -7
3 -12 10 -10 6 1 11 -4 10 -10 -2 -8 5 -12 17 -10 27 5 14 -7 -14 -13 -12 -2
-19 0 -16 5 3 6 -1 7 -9 4 -9 -3 -16 -1 -16 6 0 6 5 8 12 4 7 -4 8 -3 4 4 -10
17 -14 15 -27 -10 -6 -13 -8 -20 -4 -16 4 4 17 2 29 -4 11 -7 24 -12 28 -13 4
0 14 -9 23 -20 8 -11 14 -15 13 -10 -3 9 4 15 17 15 3 0 1 -9 -5 -19 -13 -26
5 -38 27 -19 10 7 14 8 10 1 -4 -6 -2 -13 4 -15 7 -2 5 -9 -5 -17 -14 -12 -16
-12 -13 0 2 8 2 11 0 8 -2 -4 -12 -6 -21 -4 -9 1 -11 0 -4 -2 7 -3 10 -8 8
-12 -8 -12 27 -10 43 3 11 8 13 8 8 -1 -4 -6 -4 -13 0 -16 5 -2 2 -2 -4 -1 -7
2 -13 -1 -13 -7 0 -6 -4 -8 -9 -5 -5 3 -12 -1 -15 -9 -4 -13 -2 -13 14 -5 20
10 49 1 90 -31 13 -9 12 -10 -3 -5 -12 4 -17 2 -14 -6 2 -7 10 -12 16 -10 7 1
10 -1 7 -6 -2 -4 4 -13 15 -20 14 -9 19 -9 19 0 0 6 2 9 5 6 8 -8 -6 -38 -17
-38 -5 0 -6 5 -2 12 5 7 2 8 -7 3 -8 -5 -11 -5 -7 0 4 4 -6 18 -22 30 -22 16
-27 24 -18 33 21 21 -2 13 -25 -9 -17 -15 -18 -19 -4 -14 10 4 17 2 17 -4 0
-6 -4 -11 -10 -11 -5 0 -10 -4 -10 -8 0 -5 7 -9 14 -9 8 0 14 3 13 6 -1 3 3 6
8 6 6 0 9 -4 7 -8 -1 -5 3 -5 9 -1 9 5 10 2 6 -9 -3 -9 -3 -16 1 -15 4 1 15
-2 25 -7 10 -4 23 -2 32 5 13 11 14 10 9 -3 -6 -18 -32 -30 -45 -21 -5 3 -9 3
-9 0 0 -3 16 -13 35 -22 29 -13 33 -19 24 -31 -10 -11 -9 -13 2 -11 9 2 13 -4
12 -17 -1 -11 0 -14 3 -7 3 6 10 12 15 12 6 0 7 -6 3 -12 -4 -7 4 -2 19 11 25
23 26 23 20 2 -3 -11 -9 -21 -14 -21 -5 0 -9 -5 -9 -11 0 -8 4 -9 13 0 8 6 17
8 21 4 4 -4 5 -1 3 7 -2 8 -2 12 0 7 3 -4 9 -5 13 -2 5 3 12 0 16 -6 4 -7 3
-9 -3 -6 -6 4 -14 0 -17 -9 -3 -8 -2 -12 4 -9 6 4 8 -6 6 -25 -3 -24 -1 -28
10 -19 9 8 17 4 29 -15 9 -14 13 -31 9 -37 -5 -8 -3 -9 5 -5 7 5 10 14 7 22
-3 8 0 11 9 8 8 -3 11 -13 8 -22 -4 -9 -3 -14 1 -11 13 12 15 50 3 48 -24 -3
-37 1 -37 12 0 8 4 9 13 0 8 -6 17 -8 20 -5 3 3 12 2 19 -2 12 -8 16 -10 36
-13 11 -2 13 -43 2 -56 -6 -7 -2 -11 11 -12 11 -1 19 4 18 10 -1 7 -1 21 0 31
1 20 1 20 15 1 8 -11 12 -23 10 -27 -2 -4 0 -9 6 -13 5 -3 10 -1 10 4 0 13 22
10 32 -4 9 -12 -11 -37 -23 -29 -5 3 -9 0 -9 -5 0 -14 27 -14 35 -1 3 5 12 10
18 10 7 0 6 -4 -3 -10 -11 -7 -11 -10 -2 -10 7 0 10 -5 6 -11 -5 -8 -9 -8 -14
1 -5 9 -9 9 -14 1 -4 -6 -12 -8 -18 -5 -7 4 -8 2 -4 -4 4 -6 14 -8 24 -5 15 6
16 5 2 -12 -12 -16 -10 -15 14 3 28 22 46 21 46 -1 0 -8 -3 -8 -9 2 -6 9 -11
10 -15 2 -4 -6 -2 -12 3 -12 6 -1 16 -2 21 -3 6 0 10 -5 9 -11 -1 -5 -5 -9
-11 -7 -5 1 -7 -2 -3 -8 4 -6 15 -4 30 6 22 14 24 14 39 -8 13 -18 18 -20 28
-9 11 11 11 13 0 7 -8 -5 -11 -2 -10 6 2 7 -3 12 -9 11 -7 -2 -13 1 -13 6 0 6
9 9 19 8 11 0 18 -4 15 -8 -8 -13 53 -49 73 -43 16 6 16 5 -2 -9 -15 -11 -22
-12 -27 -4 -6 9 -8 8 -8 -1 0 -7 -4 -11 -8 -8 -5 3 -9 -1 -9 -9 0 -8 4 -15 9
-15 4 0 8 5 8 11 0 5 5 7 10 4 6 -4 8 -10 5 -15 -3 -5 0 -12 6 -16 8 -4 9 -3
5 4 -4 7 -3 12 2 12 5 0 12 -9 15 -21 5 -17 9 -19 26 -10 26 14 34 14 25 -1
-5 -9 -2 -9 9 1 13 10 17 10 17 1 0 -7 7 -10 15 -6 44 18 49 17 25 -5 -14 -12
-18 -19 -10 -15 8 3 23 9 33 12 12 5 16 13 11 28 l-6 21 16 -21 c17 -23 65
-29 79 -10 6 7 7 5 3 -6 -3 -10 -1 -20 4 -23 6 -4 10 -1 10 6 0 9 4 9 15 -1
15 -13 39 -5 30 11 -4 5 -1 9 4 9 14 0 14 -13 0 -27 -8 -8 -8 -13 0 -17 6 -4
11 -13 11 -19 0 -7 -4 -6 -10 3 -5 8 -10 11 -10 5 1 -16 24 -40 43 -43 9 -2
17 2 17 8 0 6 -4 8 -10 5 -6 -3 -10 -1 -10 5 0 6 -5 8 -11 4 -8 -4 -7 0 1 15
9 18 30 21 30 5 0 -3 -4 -2 -10 1 -5 3 -10 1 -10 -6 0 -6 8 -9 20 -6 10 3 24
-1 31 -9 6 -8 16 -14 22 -14 5 0 3 8 -6 18 -14 15 -14 19 -3 19 8 0 14 -5 13
-11 -1 -6 6 -10 15 -10 10 1 16 -2 13 -6 -3 -4 2 -10 10 -14 8 -3 17 -1 21 5
4 7 10 6 18 0 7 -6 16 -8 20 -4 3 4 13 -3 22 -15 8 -12 21 -22 27 -22 8 0 9 3
1 8 -6 4 -14 16 -17 27 -7 19 -6 19 7 3 13 -18 32 -26 22 -10 -3 5 5 8 17 7
12 -1 29 3 37 9 8 6 7 1 -3 -11 -12 -13 -25 -19 -35 -16 -18 7 -17 5 12 -17
17 -13 18 -13 11 -1 -6 11 -4 13 9 8 10 -4 15 -3 11 3 -3 6 0 10 9 10 8 0 16
5 18 12 3 8 7 6 11 -5 4 -10 2 -16 -5 -14 -6 1 -13 -5 -15 -13 -4 -12 -3 -12
5 -2 13 19 16 19 37 2 17 -14 17 -14 1 20 -13 26 -13 30 -2 16 9 -11 21 -16
32 -12 14 5 15 4 4 -9 -7 -8 -8 -15 -2 -15 5 0 15 7 22 15 9 11 16 13 24 5 17
-17 29 -11 15 7 -13 16 -12 17 4 4 11 -9 15 -21 12 -35 -5 -15 -4 -17 3 -7 5
7 14 11 19 8 5 -3 10 0 10 8 0 8 -4 12 -8 10 -4 -3 -10 2 -13 10 -4 13 -2 14
14 5 11 -6 20 -15 20 -20 0 -6 9 -10 20 -10 11 0 20 4 20 10 0 5 -7 7 -15 4
-8 -4 -15 -1 -15 6 0 6 5 8 10 5 6 -3 10 0 10 7 0 8 5 6 11 -5 5 -9 17 -17 25
-17 10 0 12 -5 8 -12 -5 -9 -3 -9 9 1 14 11 18 11 23 -3 6 -15 8 -15 20 1 12
17 14 17 28 -2 15 -19 16 -19 9 -1 -5 14 -3 17 7 11 8 -5 11 -4 6 3 -3 5 -1
12 5 14 7 2 4 10 -7 18 -16 13 -17 13 -11 -2 3 -10 1 -20 -5 -24 -6 -4 -9 -3
-5 2 3 5 -8 9 -23 9 -16 1 -27 -2 -25 -5 2 -4 -2 -7 -10 -7 -11 0 -12 4 -4 14
9 10 8 13 -1 13 -8 0 -10 3 -7 6 4 4 13 1 22 -6 12 -10 15 -10 15 1 0 11 2 11
10 -1 9 -13 12 -13 21 3 10 17 12 17 29 2 10 -9 16 -23 14 -30 -3 -7 -1 -16 5
-20 7 -3 8 0 5 9 -4 11 0 14 17 11 12 -2 27 -1 33 3 19 12 38 11 33 -2 -3 -8
3 -12 16 -11 12 1 23 9 25 18 2 10 8 15 13 12 5 -4 9 -1 9 5 0 6 5 8 10 5 6
-4 7 -11 4 -17 -5 -7 -2 -8 5 -4 7 5 10 10 7 14 -3 3 2 11 12 19 15 12 14 13
-8 2 -14 -7 -27 -12 -30 -11 -17 6 -38 -11 -33 -26 6 -15 5 -15 -11 -2 -13 10
-15 15 -6 18 9 3 5 11 -11 24 -20 16 -20 18 -3 9 16 -7 26 -6 43 5 16 12 25
13 35 5 10 -8 21 -7 42 4 25 13 29 13 37 0 4 -8 15 -15 23 -15 8 0 13 4 10 9
-3 5 1 12 10 15 8 3 13 10 9 15 -3 5 -1 12 4 15 10 7 9 -20 -2 -30 -20 -21 -3
-22 21 -2 25 20 27 24 13 36 -14 11 -13 12 6 2 12 -5 26 -10 30 -9 21 4 34 -2
27 -12 -4 -8 -9 -7 -15 2 -7 11 -9 11 -9 1 0 -7 -4 -11 -8 -8 -4 2 -14 0 -22
-6 -12 -8 -12 -9 2 -4 18 5 36 -9 19 -16 -5 -1 -2 -10 7 -18 14 -13 15 -13 10
0 -3 8 6 26 20 40 21 22 24 22 18 5 -6 -19 -5 -19 8 -1 9 10 20 15 27 10 9 -5
7 -11 -6 -21 -11 -7 -14 -13 -8 -13 14 0 34 25 26 33 -3 4 -1 7 5 7 7 0 12 5
12 11 0 8 -4 8 -14 0 -11 -9 -15 -8 -20 5 -9 24 -7 31 4 14 8 -12 12 -13 19
-2 7 11 9 10 15 -3 3 -9 11 -13 17 -9 8 4 7 9 -2 15 -10 6 -7 8 8 6 12 0 19
-5 16 -11 -4 -5 1 -7 10 -3 10 4 20 0 25 -10 8 -14 10 -13 15 1 5 12 3 15 -6
10 -6 -4 -8 -3 -4 1 10 11 37 15 37 6 0 -4 -6 -13 -12 -21 -11 -12 -10 -12 5
-1 9 7 18 11 18 7 1 -3 2 -10 3 -15 0 -5 3 -11 6 -13 3 -1 4 -1 3 1 -6 9 19
41 28 36 5 -4 7 -10 5 -14 -3 -4 5 -8 16 -8 20 -2 20 -1 -3 15 -13 9 -28 16
-32 14 -5 -1 -5 3 -1 9 4 8 3 9 -5 5 -6 -4 -9 -12 -6 -17 4 -5 2 -9 -3 -9 -5
0 -12 8 -14 18 -5 19 15 23 40 8 16 -9 44 12 35 27 -3 6 -1 7 5 3 16 -9 54 12
46 26 -5 7 -1 8 11 1 21 -12 55 -6 55 10 0 6 3 8 6 5 3 -4 1 -15 -4 -25 -12
-21 10 -59 27 -48 6 3 11 1 11 -6 0 -7 3 -9 7 -6 3 4 -4 18 -17 32 -13 14 -19
25 -13 25 6 0 16 -7 23 -15 7 -9 15 -13 18 -10 3 2 10 -3 17 -12 9 -13 14 -13
20 -3 6 9 4 11 -5 5 -8 -5 -11 -3 -8 6 3 8 11 13 17 12 6 -2 11 3 11 10 0 7 8
3 17 -8 14 -18 15 -18 9 -2 -4 13 -2 17 6 14 7 -2 12 -13 10 -23 -3 -18 -3
-18 11 1 17 22 38 26 49 10 5 -6 8 -5 8 3 0 7 4 11 10 7 5 -3 6 -13 3 -23 -3
-9 4 -5 16 11 13 15 27 25 32 21 5 -3 1 -13 -9 -22 -10 -9 -13 -13 -6 -9 7 5
14 2 17 -5 4 -8 6 -7 6 5 1 19 16 23 26 7 3 -6 16 -10 28 -9 20 1 20 2 -3 9
-29 9 -27 11 17 15 31 3 40 -11 18 -27 -5 -4 -6 -10 -2 -15 9 -8 28 17 21 28
-7 13 27 19 47 9 10 -6 19 -7 19 -3 0 4 5 1 10 -7 7 -11 10 -11 10 -2 0 7 -10
17 -22 23 -21 9 -21 9 -2 6 12 -3 30 0 40 5 17 8 17 8 3 -4 -9 -7 -14 -19 -11
-26 3 -10 7 -10 18 -1 8 7 17 9 21 5 3 -3 1 -6 -6 -6 -7 0 -10 -4 -6 -10 3 -5
12 -7 20 -3 8 3 15 1 15 -5 0 -12 -18 -11 -40 3 -13 8 -13 7 -1 -8 7 -9 17
-14 22 -11 5 3 9 -2 9 -10 0 -8 4 -18 10 -21 5 -3 7 0 4 9 -3 8 -1 23 6 33 9
15 10 14 4 -7 l-7 -25 24 20 c18 15 20 16 10 3 -11 -15 -11 -18 2 -18 9 0 17
6 20 13 2 6 2 1 1 -13 -4 -25 -4 -25 11 3 9 15 18 27 21 27 3 0 2 -4 -1 -10
-3 -5 -1 -18 5 -29 7 -13 7 -22 0 -26 -5 -3 -11 4 -11 17 -1 18 -2 19 -6 4 -8
-30 11 -38 35 -16 22 20 32 14 12 -6 -8 -8 -6 -15 4 -23 11 -9 16 -9 22 0 4 8
3 9 -4 5 -8 -5 -10 -1 -5 10 5 15 7 15 15 0 5 -9 14 -14 19 -10 6 3 5 12 -3
22 -12 15 -11 16 5 3 14 -11 17 -11 17 0 0 11 2 11 10 -1 8 -13 10 -12 10 3 0
11 10 21 22 25 22 5 22 6 -7 19 l-30 13 40 -4 c34 -4 37 -3 18 6 -23 11 -32
38 -13 38 5 0 6 7 3 17 -4 11 -3 14 5 9 8 -5 10 -2 6 8 -3 9 -10 13 -15 10 -5
-3 -9 0 -9 6 0 6 -5 8 -12 4 -9 -5 -9 -2 1 9 14 17 26 24 17 9 -3 -5 2 -9 10
-9 10 0 11 4 4 11 -14 14 -13 29 3 20 6 -4 3 2 -8 13 -15 16 -23 18 -35 9 -10
-7 -9 -3 3 10 18 21 23 39 9 30 -4 -2 -8 6 -8 19 0 13 3 22 7 19 11 -6 27 28
21 45 -3 9 0 11 8 6 9 -6 9 -3 1 14 -11 20 -8 25 12 22 5 -1 6 3 2 8 -3 6 -13
7 -23 4 -14 -5 -15 -3 -5 8 18 18 16 34 -1 20 -11 -9 -16 -9 -22 0 -4 8 -3 9
4 5 7 -4 12 -1 12 8 0 9 -4 16 -10 16 -5 0 -10 5 -10 12 0 6 9 3 20 -7 20 -18
21 -18 14 1 -7 17 -6 17 9 5 11 -9 17 -10 17 -2 0 6 -4 12 -10 12 -20 3 -25 4
-37 12 -16 10 -16 19 0 42 13 16 14 15 12 -13 -1 -27 1 -30 17 -21 20 11 24
20 7 16 -6 -1 -14 4 -17 12 -3 10 0 11 9 5 11 -6 12 -4 4 7 -12 16 -13 39 -2
56 6 9 3 11 -8 7 -11 -5 -14 -2 -9 10 3 9 10 14 14 11 5 -3 6 4 3 15 -3 11 1
28 8 38 13 15 12 16 -4 3 -15 -12 -20 -12 -30 -1 -9 10 -9 11 1 6 7 -4 12 -1
12 8 0 10 -6 13 -17 9 -15 -6 -16 -5 -3 9 15 16 44 13 34 -3 -3 -5 0 -9 5 -9
16 0 13 20 -3 26 -8 3 -12 12 -9 20 3 8 10 11 17 8 6 -4 3 1 -6 12 -14 14 -21
15 -30 6 -9 -9 -9 -12 0 -12 7 0 12 -5 12 -12 0 -9 -3 -9 -12 0 -13 13 -20 45
-8 37 4 -2 8 6 8 20 0 16 -5 22 -12 18 -6 -4 -5 1 2 9 8 9 20 14 28 11 8 -3
14 0 14 7 0 6 -4 9 -9 6 -13 -8 -36 23 -36 50 -1 12 3 20 7 18 4 -3 8 0 8 5 0
6 -4 11 -10 11 -5 0 -10 5 -10 12 0 8 6 7 16 -4 12 -12 14 -20 5 -36 -14 -27
-14 -35 1 -26 7 4 8 3 4 -4 -4 -7 -2 -12 4 -12 7 0 9 8 4 22 -6 21 -6 22 12 8
17 -13 18 -13 8 0 -6 8 -15 26 -19 40 -7 22 -6 23 9 11 10 -9 16 -10 16 -2 0
6 -4 12 -10 12 -20 3 -25 4 -37 12 -16 10 -16 19 0 42 13 16 14 15 12 -13 -1
-27 1 -30 17 -21 20 11 24 20 7 17 -6 -2 -14 3 -17 11 -3 10 0 11 9 5 11 -6
12 -4 4 7 -12 16 -13 39 -2 56 4 6 3 14 -3 18 -5 3 -10 11 -10 17 0 7 6 6 15
-2 10 -9 15 -9 15 -1 0 6 -4 12 -10 12 -20 3 -25 4 -37 12 -16 10 -16 19 0 42
13 16 14 15 12 -13 -1 -27 1 -30 17 -21 20 11 24 20 7 17 -6 -2 -14 3 -17 11
-3 10 0 11 9 5 11 -6 12 -4 4 7 -12 16 -13 39 -2 56 6 9 3 11 -8 7 -11 -5 -14
-2 -9 10 3 9 10 14 14 11 5 -3 6 4 3 15 -3 11 1 28 8 38 13 15 12 16 -4 3 -15
-12 -20 -12 -30 -1 -9 10 -9 11 1 6 7 -4 12 -1 12 8 0 10 -6 13 -17 9 -15 -6
-16 -5 -3 9 15 16 44 13 34 -3 -3 -5 0 -9 5 -9 16 0 13 20 -3 26 -8 3 -12 12
-9 20 3 8 10 11 17 8 6 -4 3 1 -6 12 -14 14 -20 16 -30 6 -9 -9 -9 -12 0 -12
7 0 12 -5 12 -12 0 -9 -3 -9 -12 0 -13 13 -20 45 -8 37 4 -2 8 6 8 20 0 16 -5
22 -12 18 -6 -4 -5 1 2 9 8 9 20 14 28 11 8 -3 14 0 14 7 0 6 -4 9 -9 6 -13
-8 -36 23 -36 50 -1 12 3 20 7 18 4 -3 8 0 8 5 0 6 -4 11 -10 11 -5 0 -10 5
-10 12 0 8 6 7 16 -4 12 -12 14 -20 5 -36 -14 -27 -14 -35 1 -26 7 4 8 3 4 -4
-4 -7 -2 -12 4 -12 7 0 9 8 4 22 -6 21 -6 22 12 8 17 -13 18 -13 8 0 -6 8 -15
26 -19 40 -7 22 -6 23 9 11 10 -9 16 -10 16 -2 0 6 -4 12 -10 12 -20 3 -25 4
-37 12 -16 10 -16 19 0 42 13 16 14 15 12 -13 -1 -27 1 -30 17 -21 20 11 24
20 7 17 -6 -2 -14 3 -17 11 -3 9 0 11 9 6 11 -6 11 -5 2 5 -6 7 -9 20 -5 29 5
14 4 14 -11 2 -10 -8 -20 -11 -24 -7 -3 3 -1 6 6 6 7 0 9 5 5 13 -4 6 -4 9 1
5 9 -9 35 9 35 23 0 5 -5 9 -11 9 -5 0 -7 -4 -4 -10 3 -5 1 -10 -6 -10 -7 0
-9 8 -4 23 4 12 7 30 6 40 0 9 4 15 8 13 4 -3 8 1 8 9 0 13 -3 13 -17 0 -17
-15 -30 -11 -30 9 0 7 3 6 8 -1 6 -9 11 -7 20 8 11 17 10 20 -4 17 -9 -2 -18
4 -19 13 -2 9 3 16 11 16 7 0 11 -4 9 -8 -3 -4 2 -6 10 -5 9 1 14 6 13 12 -2
5 -6 8 -10 6 -16 -5 -7 17 10 27 9 6 12 11 6 11 -6 0 -17 -7 -24 -15 -7 -8
-18 -15 -24 -15 -8 0 -8 2 0 8 14 9 14 43 0 61 -9 12 -8 12 11 1 18 -12 20
-17 10 -30 -11 -13 -10 -13 5 -1 10 7 15 18 11 24 -14 23 -10 67 6 68 10 0 7
4 -8 10 -23 9 -23 10 -5 37 16 25 17 26 0 13 -16 -13 -17 -13 -14 5 1 10 8 22
13 26 6 5 4 8 -5 8 -9 1 -6 6 10 16 14 8 17 13 8 10 -10 -3 -20 -1 -23 4 -4 6
-12 10 -18 9 -9 0 -9 -2 1 -6 6 -2 12 -9 12 -15 0 -7 -4 -7 -13 1 -10 8 -17 7
-25 -1 -9 -9 -15 -9 -24 1 -11 10 -10 11 3 6 12 -4 24 4 39 25 22 31 22 49 1
35 -6 -3 -8 -12 -5 -18 5 -9 4 -9 -5 -1 -17 15 -3 44 17 37 10 -4 7 3 -8 16
-21 19 -22 22 -5 17 20 -6 20 -6 1 9 -11 8 -25 15 -30 15 -6 0 -4 -5 4 -10 13
-8 13 -10 1 -10 -11 0 -10 -4 4 -13 14 -11 15 -16 5 -22 -9 -5 -11 -4 -6 3 7
12 -1 15 -35 15 -9 0 -16 6 -16 13 0 8 4 14 9 14 4 0 8 -5 8 -11 0 -5 5 -7 10
-4 8 5 7 11 -1 21 -6 7 -16 11 -21 8 -6 -4 -5 4 2 16 11 20 10 21 -12 15 -27
-9 -23 -3 11 15 19 10 22 10 16 -2 -6 -10 -5 -10 6 1 11 10 11 15 1 18 -6 3
-10 9 -7 14 4 5 -1 6 -10 2 -14 -5 -14 -8 -3 -15 10 -8 10 -9 -2 -5 -8 2 -15
12 -15 23 1 10 -4 23 -10 27 -5 5 0 5 13 2 13 -4 22 -2 22 5 0 6 -4 8 -10 5
-5 -3 -10 0 -10 8 0 8 -10 19 -22 25 -20 10 -19 10 12 6 l35 -4 -32 10 c-18 6
-33 13 -33 16 0 4 6 4 14 1 16 -6 43 19 32 30 -3 3 -6 1 -6 -6 0 -7 -5 -9 -10
-6 -8 5 -7 12 2 23 10 13 10 14 0 8 -9 -6 -11 -1 -8 18 3 15 0 25 -6 23 -6 -1
-13 4 -15 11 -3 7 1 10 10 6 8 -3 18 -1 22 5 4 7 -1 8 -12 4 -16 -6 -17 -5 -3
12 14 18 14 18 -12 0 -19 -15 -23 -23 -16 -32 6 -7 7 -13 4 -13 -12 0 -55 54
-56 70 0 12 -2 12 -9 2 -7 -11 -9 -11 -14 1 -8 22 23 14 37 -9 11 -20 37 -27
35 -9 -3 22 -12 35 -23 34 -16 -3 -46 12 -46 23 0 5 4 7 8 4 4 -2 8 6 8 18 0
20 -3 22 -18 12 -15 -9 -21 -8 -28 4 -5 8 -10 18 -10 23 0 11 18 8 26 -5 5 -7
3 -8 -6 -3 -9 6 -11 4 -6 -4 9 -13 21 -6 21 12 1 7 7 11 14 9 7 -1 10 2 6 8
-5 8 -12 7 -22 -2 -14 -11 -15 -10 -9 10 6 17 3 22 -11 22 -14 0 -15 -2 -4 -9
9 -6 10 -11 2 -15 -6 -4 -11 -2 -11 4 0 6 -4 9 -8 6 -5 -3 -9 1 -9 9 0 8 4 12
9 9 4 -3 8 0 8 6 0 6 5 8 12 4 6 -4 8 -3 5 3 -3 5 -23 8 -44 7 -23 -2 -33 0
-25 5 11 7 10 10 -3 15 -9 3 -22 3 -27 -1 -7 -3 -8 -1 -4 5 4 7 2 12 -5 12 -8
0 -8 4 -1 13 12 14 -10 52 -23 39 -5 -4 -5 -1 0 7 7 12 10 12 19 -1 10 -14 13
-14 26 0 13 14 12 15 -2 10 -8 -4 -20 -2 -26 4 -8 8 -16 8 -27 -2 -8 -7 -15
-8 -15 -2 0 5 14 15 30 22 17 7 30 17 30 22 0 7 -4 7 -12 1 -24 -19 -47 -23
-42 -8 3 8 11 13 16 12 6 -1 13 5 15 13 4 13 3 13 -6 0 -6 -8 -11 -10 -12 -5
-4 46 -12 60 -29 50 -8 -5 -6 -12 5 -25 12 -14 13 -20 4 -26 -8 -5 -10 -3 -4
6 5 9 1 11 -16 6 -13 -3 -18 -3 -11 0 6 3 12 10 12 15 0 6 -4 8 -9 4 -5 -3
-13 0 -17 6 -4 7 -3 10 2 7 5 -3 18 6 28 21 l20 26 -22 -19 c-24 -21 -27 -16
-11 17 9 19 8 20 -3 6 -11 -13 -17 -14 -28 -5 -8 6 -16 18 -18 26 -2 8 -10 22
-18 30 -13 13 -17 12 -35 -10 l-20 -25 12 25 c19 37 20 57 4 64 -8 3 -13 11
-11 18 1 7 1 10 -1 6 -3 -5 -15 -8 -28 -8 -13 0 -29 -8 -34 -17 -6 -10 -11
-13 -11 -7 0 5 5 15 12 22 6 6 8 15 3 19 -4 5 -10 2 -12 -4 -3 -7 -9 -13 -14
-13 -6 0 -7 5 -4 10 9 14 -8 12 -25 -2 -12 -11 -12 -10 0 5 7 10 19 16 27 13
7 -3 13 -1 13 5 0 6 4 8 9 5 5 -3 11 0 14 7 3 7 -3 13 -13 13 -10 0 -16 -4
-14 -8 3 -4 -2 -8 -11 -8 -9 0 -13 5 -10 10 3 6 1 10 -5 10 -6 0 -8 4 -5 10 3
6 -1 7 -9 4 -9 -3 -13 -11 -9 -18 3 -6 3 -8 -2 -4 -4 4 -14 3 -22 -3 -24 -21
-13 0 15 27 17 17 21 24 10 21 -10 -3 -20 -2 -23 3 -4 6 2 10 11 10 16 0 16 1
-2 14 -17 13 -21 12 -36 -1 -16 -15 -18 -15 -18 0 0 10 5 17 11 17 5 0 7 5 3
11 -5 8 -9 8 -14 -1 -6 -9 -9 -9 -13 1 -4 10 -6 10 -6 2 -1 -7 -8 -13 -17 -13
-8 0 -13 -4 -10 -8 3 -5 -2 -9 -10 -9 -10 0 -8 7 8 24 21 22 21 23 3 17 -18
-7 -18 -6 -6 9 9 11 10 17 2 17 -6 0 -12 -4 -12 -10 -1 -5 -2 -14 -3 -20 0 -5
-4 -10 -8 -10 -5 0 -12 0 -16 0 -4 0 -15 13 -25 29 -13 22 -14 32 -6 37 8 5 9
3 4 -7 -7 -12 -6 -12 7 -1 13 10 17 10 22 -4 9 -24 7 -28 -9 -14 -23 19 -18 2
6 -23 12 -12 19 -16 15 -9 -4 7 0 25 10 40 14 21 14 24 2 14 -13 -10 -17 -10
-21 2 -6 15 -34 15 -60 0 -6 -4 -4 2 6 14 11 12 27 19 39 17 11 -3 18 -1 14 2
-10 10 -56 11 -50 1 8 -13 -4 -9 -33 10 -15 9 -24 11 -20 5 5 -8 3 -13 -3 -13
-6 0 -13 7 -16 15 -4 8 -11 15 -16 15 -7 0 -7 -4 0 -13 8 -9 8 -17 0 -27 -8
-12 -9 -12 -4 3 3 9 3 17 -1 17 -3 0 -12 -8 -20 -17 -13 -16 -13 -16 -3 5 11
24 -3 67 -19 57 -5 -2 -15 3 -22 12 -12 14 -11 15 8 9 12 -4 24 -3 26 2 3 4
-6 7 -21 7 -26 -1 -81 21 -93 39 -4 5 -18 10 -32 11 -14 2 -31 6 -38 11 -8 4
-9 3 -5 -4 4 -7 2 -12 -4 -12 -6 0 -9 -4 -5 -9 11 -19 -13 -20 -30 -1 -18 20
-51 29 -40 11 3 -5 0 -13 -6 -17 -8 -4 -9 -3 -5 4 4 7 3 12 -3 12 -5 0 -13 -5
-17 -11 -5 -8 -10 -6 -16 5 -5 9 -13 14 -19 11 -15 -10 -10 5 7 22 14 15 15
14 12 -2 -2 -10 2 -20 7 -22 6 -2 11 6 12 17 1 11 -3 20 -8 20 -6 0 -7 6 -3
13 6 9 5 9 -8 0 -15 -13 -28 -8 -28 9 0 5 4 7 9 4 11 -7 8 20 -3 31 -4 4 -6 1
-4 -7 4 -18 -32 -15 -45 3 -6 8 -7 6 -4 -4 3 -9 1 -21 -4 -26 -6 -6 -4 -10 6
-11 8 -1 21 -3 29 -4 15 -1 10 -28 -6 -28 -5 0 -6 5 -3 10 3 6 1 10 -4 10 -6
0 -11 -4 -11 -10 0 -5 -4 -10 -10 -10 -5 0 -9 6 -7 13 1 6 -6 11 -15 9 -9 -1
-19 2 -23 8 -3 5 -1 10 5 10 6 0 8 5 4 12 -5 8 -11 6 -20 -7 -12 -16 -13 -16
-11 3 1 13 7 19 18 17 12 -3 17 2 16 16 -1 16 -4 17 -12 7 -13 -17 -50 -24
-39 -7 4 8 3 10 -4 5 -19 -12 -14 12 6 24 16 11 16 11 -1 6 -10 -3 -21 -6 -23
-6 -2 0 -4 -7 -4 -15 0 -8 -8 -15 -17 -16 -12 0 -13 -2 -5 -6 10 -4 9 -8 -5
-18 -15 -11 -19 -10 -31 6 -7 10 -19 16 -26 13 -18 -7 -31 15 -18 28 7 7 17 6
31 -1 16 -9 19 -9 16 2 -7 15 -42 20 -51 6 -4 -6 -11 -6 -19 1 -9 8 -15 8 -20
0 -3 -6 -11 -8 -16 -4 -6 4 -6 11 2 20 6 8 9 14 6 14 -2 0 -10 -6 -16 -14z
m-16 -21 c14 0 19 -6 17 -19 -2 -12 1 -16 9 -10 8 5 10 3 4 -6 -6 -10 -12 -7
-25 10 -12 15 -19 19 -24 11 -4 -6 -12 -9 -17 -6 -5 4 -9 1 -9 -6 0 -7 -3 -9
-6 -6 -4 4 -2 13 4 20 7 8 8 18 4 22 -4 5 0 4 8 -1 8 -5 24 -9 35 -9z m-280
-6 c11 -16 1 -19 -13 -3 -7 8 -8 14 -3 14 5 0 13 -5 16 -11z m341 -15 c2 -12
-1 -13 -12 -3 -7 6 -11 16 -8 21 7 11 17 3 20 -18z m-532 4 c-8 -12 10 -10 26
5 12 10 12 9 2 -4 -6 -9 -8 -19 -4 -24 4 -4 -3 -3 -15 4 -28 14 -36 28 -18 28
8 0 12 -4 9 -9z m76 -24 c0 -3 -7 -1 -15 6 -12 10 -15 10 -15 0 0 -8 -2 -11
-5 -8 -3 3 -3 12 1 21 5 14 8 14 20 2 8 -7 14 -17 14 -21z m314 18 c2 -4 -4
-8 -14 -8 -10 0 -16 4 -14 8 3 4 9 8 14 8 5 0 11 -4 14 -8z m296 -36 c0 -6 -4
-5 -9 3 -7 11 -9 11 -14 0 -3 -8 -4 -4 -4 8 1 17 4 19 14 11 7 -6 13 -16 13
-22z m-690 10 c0 -3 -4 -8 -10 -11 -5 -3 -10 -1 -10 4 0 6 5 11 10 11 6 0 10
-2 10 -4z m-203 -26 c1 -11 -2 -22 -8 -25 -5 -4 -9 -1 -9 5 0 6 -5 8 -10 5 -6
-4 -7 -11 -4 -17 4 -6 2 -8 -4 -4 -6 3 -18 -4 -26 -16 -9 -12 -16 -18 -16 -12
0 5 6 16 13 23 10 11 8 12 -10 7 -12 -4 -24 -2 -28 3 -3 6 0 8 8 5 8 -3 27 6
43 20 35 31 49 32 51 6z m1013 10 c0 -5 -7 -7 -15 -4 -8 4 -15 8 -15 10 0 2 7
4 15 4 8 0 15 -4 15 -10z m-912 -12 c-2 -7 3 -12 10 -10 8 1 11 -2 7 -8 -5 -8
-11 -8 -21 1 -7 6 -11 15 -8 20 8 13 14 11 12 -3z m822 -14 c0 -8 -19 -13 -24
-6 -3 5 1 9 9 9 8 0 15 -2 15 -3z m280 -44 c0 -5 -4 -10 -10 -10 -5 0 -10 5
-10 10 0 6 5 10 10 10 6 0 10 -4 10 -10z m45 -10 c10 -11 21 -17 26 -15 15 10
18 -12 3 -31 -14 -19 -14 -19 -12 0 2 10 -3 21 -11 24 -8 2 -11 0 -8 -5 3 -5
0 -10 -8 -10 -8 0 -13 5 -12 11 1 6 -4 10 -12 8 -11 -2 -12 0 -3 11 7 8 9 17
5 20 -3 4 -2 7 4 7 5 0 18 -9 28 -20z m107 -65 c3 3 8 -1 11 -9 3 -8 -2 -20
-11 -28 -16 -12 -16 -11 -2 6 14 18 13 19 -2 13 -42 -16 -51 -17 -28 -3 14 8
23 16 20 16 -31 7 -40 7 -40 -3 0 -5 -3 -7 -7 -4 -3 4 -11 3 -18 -1 -6 -4 -2
1 8 11 11 9 16 17 13 17 -4 0 -4 5 -1 11 5 7 15 3 29 -10 12 -12 25 -19 28
-16z m-1707 -28 c6 -5 -1 -5 -14 -2 -15 5 -21 3 -17 -3 4 -6 -2 -8 -15 -5 -21
6 -21 6 2 19 13 7 26 9 29 6 3 -4 10 -10 15 -15z m1820 -26 c3 -5 0 -13 -6
-17 -8 -5 -9 -3 -4 6 6 10 4 12 -9 7 -10 -4 -15 -3 -11 3 8 13 22 13 30 1z
m15 -51 c0 -5 -2 -10 -4 -10 -3 0 -8 5 -11 10 -3 6 -1 10 4 10 6 0 11 -4 11
-10z m-2067 -44 c4 -11 1 -13 -11 -9 -15 6 -16 5 -2 -12 14 -17 14 -17 -8 -4
-21 13 -21 15 -5 27 21 15 20 15 26 -2z m2193 -24 c0 -10 -6 -19 -13 -19 -8 0
-9 6 -2 19 5 10 11 18 12 18 2 0 3 -8 3 -18z m52 -18 c0 -18 -5 -24 -15 -20
-8 3 -16 6 -19 6 -2 0 4 9 13 20 22 25 21 25 21 -6z m-2323 -33 c-3 -2 -12 2
-22 10 -15 12 -16 12 -10 -3 4 -12 2 -15 -9 -11 -11 4 -12 9 -3 19 8 10 15 11
29 1 11 -6 17 -13 15 -16z m2365 -35 c0 -3 -4 -8 -10 -11 -5 -3 -10 -1 -10 4
0 6 5 11 10 11 6 0 10 -2 10 -4z m110 -56 c12 -6 17 -16 13 -26 -5 -14 -8 -12
-20 7 -12 21 -13 21 -8 3 3 -14 -1 -26 -12 -35 -16 -12 -17 -12 -6 2 7 8 10
25 6 37 -6 24 -1 27 27 12z m55 -71 c-4 -5 -2 -9 3 -9 5 0 9 -7 9 -15 0 -8 -4
-15 -9 -15 -4 0 -8 6 -8 14 0 8 -5 16 -12 18 -6 2 -8 10 -4 16 4 7 12 10 17 6
5 -3 7 -10 4 -15z m-2728 -8 c1 -14 -4 -19 -17 -18 -18 1 -18 3 -3 19 20 22
18 22 20 -1z m2764 -68 c-11 -16 -11 -15 -5 6 4 17 3 21 -6 16 -9 -6 -11 -4
-5 4 5 9 11 9 17 3 7 -7 6 -16 -1 -29z m-2861 -12 c3 -1 -2 -5 -10 -10 -15
-10 -30 -6 -30 9 0 4 8 7 18 5 9 -2 19 -4 22 -4z m1317 -51 c-1 -10 -5 -18
-10 -17 -5 1 -13 -8 -18 -21 -6 -15 -5 -21 1 -17 6 3 10 12 10 20 0 14 17 15
38 1 12 -7 12 -4 2 14 -6 12 -9 24 -6 28 3 3 6 0 6 -6 0 -16 30 -15 31 1 0 10
2 10 6 0 2 -7 11 -13 19 -13 8 0 14 6 14 13 0 8 3 8 8 2 10 -14 32 -13 61 4
13 7 21 8 17 2 -4 -6 0 -14 9 -17 11 -5 13 -10 5 -19 -8 -10 -8 -15 1 -21 7
-4 9 -3 5 4 -3 6 -2 13 3 16 5 4 12 2 16 -3 7 -12 35 -3 35 11 0 7 -5 6 -13
-1 -11 -8 -16 -5 -26 17 -10 23 -10 25 2 10 16 -20 32 -25 21 -6 -5 7 -3 8 7
2 23 -14 51 -16 43 -2 -4 7 -3 8 4 4 6 -4 8 -14 5 -23 -6 -14 -4 -14 19 1 23
15 25 15 23 -2 0 -9 -5 -24 -10 -32 -6 -10 -2 -9 12 3 11 9 22 14 25 11 3 -3
9 -1 12 5 4 6 -2 8 -15 6 -12 -2 -18 -1 -15 3 4 4 11 7 14 7 4 1 18 6 32 13
23 12 24 12 6 -2 -11 -9 -18 -16 -15 -17 2 0 12 -2 22 -4 9 -2 17 0 17 5 0 4
11 7 24 6 14 0 22 -6 19 -14 -4 -10 -8 -10 -21 0 -9 7 -13 8 -9 2 4 -8 -3 -11
-22 -9 -22 2 -28 -1 -24 -12 3 -8 9 -11 12 -6 7 11 27 11 37 0 4 -4 16 1 27
10 11 10 17 12 13 6 -9 -16 15 -17 32 -3 6 6 10 7 7 4 -2 -4 0 -16 6 -28 9
-20 9 -20 -4 -3 -10 12 -17 14 -22 7 -3 -5 -10 -8 -15 -5 -10 6 -40 -4 -40
-14 0 -4 7 -8 15 -8 8 0 12 4 10 7 -3 4 6 8 20 8 14 0 22 -5 18 -11 -3 -5 -1
-7 5 -3 5 3 25 -6 43 -21 36 -30 60 -38 52 -17 -5 13 -16 18 -28 12 -2 -2 -11
6 -19 17 -15 20 -12 40 5 29 5 -3 7 -9 4 -14 -3 -4 2 -10 10 -13 9 -4 12 -1 9
7 -3 8 0 17 7 22 7 4 10 3 6 -4 -4 -5 -4 -18 -1 -27 6 -13 9 -14 16 -3 7 9 8
7 4 -8 -5 -14 -2 -21 9 -21 8 0 15 5 15 11 0 6 5 3 11 -7 5 -9 7 -23 3 -30 -4
-6 -4 -9 1 -5 4 4 15 2 23 -5 13 -9 14 -9 8 1 -4 7 -2 12 4 12 6 0 9 4 6 8 -3
5 1 9 9 9 8 0 13 -3 10 -5 -3 -3 8 -17 24 -33 27 -25 28 -28 12 -45 -15 -17
-15 -17 1 -5 9 7 23 9 29 5 9 -5 10 -2 6 9 -3 9 -2 19 2 21 5 3 8 -5 7 -17 0
-12 -5 -22 -11 -22 -5 0 -19 -6 -30 -14 -15 -9 -15 -11 -3 -7 10 3 20 0 24 -6
5 -7 12 -5 20 7 8 10 17 16 20 12 4 -4 1 -13 -6 -22 -8 -9 -8 -15 -2 -15 6 0
14 5 17 10 4 6 11 8 16 5 5 -4 9 0 9 7 0 7 9 0 19 -15 21 -32 29 -35 43 -15 8
11 9 11 6 0 -2 -8 -7 -13 -12 -12 -9 2 -26 -19 -26 -32 0 -5 5 -8 11 -8 5 0 7
5 4 10 -4 6 5 5 19 -2 14 -6 26 -16 26 -21 0 -5 -7 -4 -14 3 -11 9 -19 9 -33
0 -15 -9 -14 -10 7 -4 22 6 23 5 11 -10 -9 -10 -10 -16 -2 -16 6 0 11 5 11 11
0 5 5 7 10 4 6 -4 8 -10 5 -15 -3 -5 -1 -11 5 -15 6 -4 8 -11 4 -16 -3 -6 3
-5 14 2 11 7 18 18 15 25 -2 6 0 15 6 19 6 3 9 0 5 -8 -3 -8 -1 -18 5 -21 12
-8 3 -36 -11 -36 -6 0 -4 8 3 18 13 15 12 16 -4 3 -12 -10 -15 -17 -7 -25 7
-7 14 -6 22 2 15 15 32 16 23 2 -3 -6 4 -14 16 -19 19 -6 23 -16 25 -54 1 -31
-2 -45 -9 -40 -6 3 -7 1 -3 -6 6 -9 11 -9 22 0 13 10 18 6 16 -12 -1 -4 6 -5
16 -3 9 2 28 -5 42 -16 16 -13 19 -18 7 -14 -10 4 -17 3 -16 -2 3 -20 -2 -35
-10 -30 -5 4 -7 -3 -4 -14 3 -11 9 -20 14 -20 4 0 6 -9 4 -20 -2 -12 2 -23 10
-27 8 -3 12 -10 8 -16 -4 -6 -1 -7 6 -3 7 5 23 9 37 11 19 2 22 0 13 -11 -7
-8 -18 -13 -27 -12 -8 2 -17 -2 -19 -8 -5 -15 56 -44 76 -37 10 4 9 0 -4 -10
-11 -8 -16 -19 -12 -23 4 -5 12 -3 16 5 6 10 10 9 15 -5 3 -9 4 -19 1 -22 -3
-3 -5 -1 -5 5 0 5 -10 9 -22 8 -13 -1 -22 -5 -20 -8 1 -4 2 -11 2 -17 0 -5 8
-10 18 -10 14 0 15 2 2 10 -8 5 -11 10 -6 10 18 0 45 -32 39 -46 -3 -8 1 -22
8 -32 13 -15 12 -16 -3 -3 -11 8 -18 9 -18 3 0 -6 8 -16 18 -21 9 -6 12 -11 7
-11 -6 0 -16 5 -23 12 -7 7 -12 8 -12 4 0 -5 -8 -2 -17 5 -16 13 -17 12 -4 -3
7 -10 18 -15 23 -12 6 4 8 -2 3 -15 -4 -13 -2 -21 5 -21 6 0 8 4 5 10 -3 6 1
7 10 3 12 -4 13 -8 5 -13 -7 -4 -9 -13 -5 -20 12 -20 14 -74 3 -81 -7 -4 -8
-15 -3 -25 5 -11 9 -41 10 -69 1 -27 0 -44 -3 -37 -2 7 -7 10 -12 7 -10 -6 -7
38 3 46 4 3 -5 11 -20 17 -23 10 -25 10 -13 0 9 -7 15 -24 15 -38 -1 -14 3
-31 8 -37 6 -9 5 -18 -3 -28 -11 -13 -11 -18 0 -28 10 -10 12 -9 7 5 -3 9 0
22 8 28 12 10 13 8 10 -10 -2 -13 -12 -31 -21 -41 -9 -10 -13 -22 -10 -28 4
-5 -2 -14 -11 -20 -10 -6 -13 -10 -8 -11 18 0 38 17 32 28 -4 5 3 18 16 28 12
11 17 12 11 4 -6 -8 -10 -25 -9 -37 1 -13 -1 -21 -3 -18 -7 7 -32 -15 -32 -27
0 -6 8 -4 18 3 15 13 16 12 4 -2 -19 -25 -23 -60 -9 -78 11 -14 10 -14 -5 -2
-12 9 -18 10 -18 2 0 -6 7 -14 15 -17 11 -5 12 -9 2 -19 -7 -7 -16 -11 -20 -8
-4 2 -6 -6 -3 -19 3 -18 -1 -24 -15 -25 -20 -2 -26 12 -9 22 8 5 8 11 0 20
-11 13 -34 14 -46 2 -4 -3 3 -5 14 -2 12 2 24 0 27 -6 4 -5 2 -9 -4 -9 -5 0
-11 -10 -13 -22 -2 -13 -9 -22 -16 -20 -8 1 -10 -2 -7 -8 4 -6 -1 -18 -11 -26
-18 -13 -18 -14 1 -7 l20 6 -20 -23 c-11 -13 -14 -20 -7 -16 6 4 12 2 12 -4 0
-6 5 -8 12 -4 6 4 8 3 5 -4 -4 -5 -17 -8 -29 -4 -16 4 -20 2 -15 -10 3 -9 3
-19 0 -22 -4 -3 -7 -23 -7 -43 -1 -28 -6 -39 -20 -41 -10 -2 -16 0 -13 5 7 12
-30 10 -40 -2 -5 -4 -3 -6 2 -2 12 7 24 0 44 -26 12 -16 12 -18 0 -15 -8 2
-13 -3 -11 -10 1 -6 -1 -11 -5 -11 -5 1 -15 1 -23 0 -13 -1 -13 -2 0 -11 8 -5
11 -10 5 -10 -24 0 -33 15 -17 30 9 8 19 15 22 15 3 0 4 4 2 8 -1 5 3 5 9 1 7
-4 9 -3 6 4 -9 13 -43 8 -40 -6 1 -5 -6 -17 -16 -26 -20 -18 -17 -61 3 -49 6
3 3 -3 -7 -14 -9 -11 -16 -22 -15 -24 2 -2 1 -3 -1 -1 -3 1 -6 9 -7 17 -1 9 2
12 8 9 7 -4 8 -2 4 5 -4 6 -12 9 -17 6 -5 -4 -9 2 -9 11 0 10 -3 15 -6 11 -4
-3 -3 -14 1 -24 5 -10 7 -22 6 -27 -1 -5 6 -18 16 -30 14 -17 12 -16 -9 3 -15
13 -25 27 -23 31 2 4 -2 7 -10 7 -8 0 -13 -5 -12 -11 1 -5 -5 -10 -13 -11 -18
0 -20 -27 -2 -31 7 -1 8 0 2 3 -5 2 -10 10 -10 16 0 5 3 7 7 4 3 -4 12 -2 18
3 9 8 15 6 19 -6 4 -9 4 -19 1 -22 -3 -3 -5 1 -5 9 0 12 -2 12 -10 -1 -5 -9
-5 -19 1 -26 7 -8 4 -11 -8 -10 -13 1 -17 -5 -15 -19 2 -16 1 -17 -7 -5 -10
13 -11 13 -12 0 -1 -8 -1 -19 0 -24 1 -5 -4 -4 -13 3 -10 8 -16 9 -21 1 -4 -7
-11 -8 -18 -2 -11 9 -57 -1 -57 -12 0 -2 10 -2 23 1 22 5 22 5 2 -11 -11 -10
-13 -15 -5 -11 10 4 9 2 -2 -8 -10 -8 -16 -16 -13 -18 2 -3 -8 -6 -22 -7 -15
-1 -23 1 -19 5 4 5 13 8 19 8 5 0 12 7 14 15 4 13 3 13 -6 0 -9 -13 -11 -12
-11 5 -1 18 -2 18 -10 -2 -5 -13 -14 -23 -20 -23 -5 0 -10 -5 -10 -11 0 -5 4
-8 8 -5 4 2 14 -4 21 -16 10 -16 10 -18 0 -12 -9 5 -10 2 -6 -10 6 -14 3 -15
-13 -6 -14 7 -20 7 -20 0 0 -5 5 -10 12 -10 6 0 8 -3 4 -7 -4 -5 -13 0 -20 9
-7 9 -19 16 -27 15 -16 -3 -68 -37 -55 -37 5 0 3 -7 -4 -15 -12 -15 -35 -11
-25 4 11 18 -45 7 -67 -13 -12 -11 -27 -20 -33 -18 -5 2 -6 0 -2 -4 12 -12 37
-13 34 -2 -1 5 7 16 19 24 19 13 23 13 35 -3 8 -9 9 -14 2 -10 -6 4 -14 3 -18
-2 -3 -6 -12 -8 -21 -4 -8 3 -14 2 -12 -3 2 -5 0 -9 -3 -9 -3 0 -13 -6 -22
-13 -9 -8 -21 -10 -28 -6 -7 4 -26 8 -43 10 -17 1 -25 0 -18 -3 6 -2 9 -9 6
-14 -4 -6 -10 -6 -18 0 -9 8 -13 7 -13 -4 0 -8 4 -12 9 -9 4 3 8 0 8 -6 0 -7
6 -10 13 -8 6 3 12 11 12 18 0 18 21 24 31 9 4 -8 3 -9 -4 -5 -11 6 -16 -5
-13 -26 1 -8 -42 -4 -57 6 -6 3 -18 -4 -27 -16 l-16 -23 5 25 c2 14 9 24 15
22 6 -1 11 2 11 8 0 13 -6 13 -30 -2 -17 -11 -22 -10 -30 2 -11 17 -13 9 -4
-14 3 -9 10 -13 15 -10 5 3 9 0 9 -6 0 -7 -8 -9 -21 -5 -14 5 -19 4 -15 -4 5
-7 1 -8 -9 -4 -13 4 -14 7 -3 14 11 7 10 10 -1 21 -11 11 -13 11 -6 -1 6 -11
4 -13 -9 -8 -9 4 -15 3 -12 -1 3 -4 -4 -14 -16 -21 -11 -7 -17 -8 -13 -2 3 6
1 11 -4 11 -6 0 -11 -6 -12 -12 0 -10 -2 -10 -5 -1 -3 6 -16 9 -30 7 -13 -2
-24 0 -24 6 0 6 5 8 12 4 7 -4 8 -3 4 4 -4 7 -2 12 5 12 7 0 10 3 6 6 -6 7
-52 -22 -52 -33 0 -4 -8 -9 -17 -10 -10 -2 -18 2 -18 8 0 8 -5 8 -15 -1 -8 -7
-15 -10 -15 -6 0 3 0 9 0 13 0 4 11 8 25 9 13 0 22 -2 20 -6 -2 -4 2 -7 10 -7
11 0 10 5 -2 24 -17 26 -25 30 -17 8 4 -10 0 -13 -15 -10 -11 2 -23 -1 -26 -6
-4 -5 -11 -6 -17 -3 -6 4 -5 10 3 15 10 6 10 9 2 9 -6 0 -15 -5 -18 -10 -5 -8
-12 -7 -23 2 -15 12 -16 11 -3 -4 16 -21 4 -23 -21 -4 -10 7 -15 16 -11 19 3
4 4 7 0 7 -19 0 -14 -21 8 -36 20 -13 28 -14 39 -5 12 10 17 8 27 -11 6 -13 8
-20 4 -16 -5 4 -15 2 -24 -4 -13 -10 -14 -10 -3 2 17 19 15 35 -3 20 -8 -6
-18 -9 -24 -6 -5 3 -12 0 -14 -6 -3 -8 -6 -5 -6 5 -1 11 -7 17 -13 14 -7 -2
-12 -11 -10 -18 2 -8 -5 -6 -18 6 -18 16 -23 17 -30 5 -6 -8 -10 -10 -10 -4 0
5 5 15 12 22 13 13 8 15 -16 6 -9 -3 -13 -10 -10 -15 3 -5 -3 -6 -12 -2 -13 5
-15 3 -9 -8 5 -8 4 -11 0 -6 -15 13 -14 36 0 31 8 -3 19 5 25 18 10 21 10 21
-3 5 -14 -17 -33 -24 -23 -9 3 5 -1 9 -9 9 -8 0 -12 -4 -9 -9 10 -15 -30 -4
-43 12 -9 12 -8 19 5 35 17 20 17 20 -4 3 -23 -20 -39 -24 -29 -8 3 6 4 10 1
10 -3 0 -10 -9 -15 -19 -9 -17 -8 -18 12 -13 20 5 21 4 8 -11 -9 -12 -17 -14
-26 -7 -6 5 -15 7 -18 3 -4 -3 1 -12 11 -20 15 -13 15 -13 -6 -3 -13 6 -20 16
-16 22 5 7 2 9 -9 5 -10 -4 -16 -2 -14 5 1 7 -3 12 -10 13 -21 0 -24 12 -6 26
14 12 16 12 8 0 -6 -10 -4 -12 5 -6 9 5 11 4 6 -3 -4 -7 -3 -12 3 -12 5 0 11
3 14 8 2 4 2 2 1 -5 -2 -7 1 -15 6 -18 13 -8 13 26 0 45 -8 12 -10 12 -10 1 0
-17 -15 -5 -15 12 0 7 -11 11 -24 9 -20 -2 -22 0 -11 13 7 8 8 15 4 15 -5 0
-15 -9 -22 -21 -10 -15 -10 -19 -1 -14 8 5 10 4 5 -4 -9 -14 -28 -4 -24 12 2
7 -2 12 -7 12 -5 0 -9 -6 -7 -12 2 -7 -2 -13 -8 -13 -5 0 -9 5 -8 11 2 6 -3
14 -10 16 -8 3 -10 -1 -5 -14 3 -10 3 -15 -1 -11 -4 3 -9 14 -10 25 -2 10 -9
18 -16 18 -7 0 -15 6 -18 14 -3 9 0 11 8 6 8 -5 11 -4 7 2 -4 6 -18 9 -32 8
-16 -2 -29 3 -35 15 -13 25 -44 36 -36 13 3 -10 -3 -6 -15 10 -20 27 -57 39
-43 15 4 -7 4 -10 0 -6 -4 3 -8 10 -8 15 0 4 -5 15 -11 23 -10 13 -10 13 4 2
13 -10 18 -10 27 1 8 9 4 13 -18 13 -16 1 -31 -4 -34 -12 -3 -8 0 -14 6 -14 6
0 9 -3 5 -6 -3 -3 -11 -3 -17 1 -8 5 -6 14 5 32 16 24 16 24 -7 12 -13 -6 -20
-8 -15 -4 4 5 -5 17 -20 27 -16 10 -22 18 -14 18 8 0 12 3 8 6 -3 3 -8 4 -11
2 -3 -1 -13 7 -22 20 -11 17 -19 20 -28 13 -17 -15 -27 -2 -16 19 5 10 6 21 2
25 -4 3 -1 5 7 3 7 -1 16 4 18 12 4 13 3 13 -6 0 -9 -13 -11 -13 -11 2 0 9 -9
23 -20 31 -11 8 -17 18 -12 23 4 5 -6 -2 -23 -16 -21 -18 -25 -19 -14 -5 29
36 34 51 11 31 -20 -17 -33 -10 -15 8 11 10 12 37 2 30 -8 -5 -14 18 -10 40 1
5 -5 3 -14 -4 -14 -11 -17 -10 -22 8 -3 12 -9 19 -14 16 -5 -3 -6 2 -3 10 5
12 11 13 27 5 21 -10 21 -9 -1 8 -18 15 -20 21 -10 31 11 11 10 13 -2 10 -8
-2 -16 4 -16 12 -1 8 -2 18 -3 23 0 4 -1 9 -1 12 1 13 -28 33 -45 32 -10 -1
-20 5 -22 13 -4 13 -3 13 7 0 9 -12 10 -10 4 10 l-7 25 22 -19 c18 -17 21 -17
15 -3 -6 16 -18 21 -38 18 -5 -1 -6 5 -3 13 10 25 -11 28 -33 6 -11 -11 -20
-16 -20 -12 0 4 5 13 11 19 8 8 7 14 -4 24 -12 12 -12 15 2 27 12 10 13 15 4
18 -10 4 -9 9 2 21 15 14 11 38 -4 29 -4 -3 -13 5 -21 17 -12 20 -12 21 3 8
14 -11 17 -11 17 0 0 8 6 5 16 -7 15 -18 15 -18 5 3 -14 28 -14 36 1 27 7 -4
8 -3 4 5 -4 6 -12 9 -17 6 -16 -11 -10 7 9 22 15 13 15 13 -5 3 -25 -12 -39
-30 -24 -30 6 0 11 -5 11 -11 0 -8 -5 -7 -15 1 -9 7 -13 15 -10 18 3 3 -1 12
-8 21 -11 14 -10 15 7 1 18 -14 19 -13 13 2 -4 13 -2 15 9 11 14 -5 14 -3 3
15 -7 11 -17 18 -23 15 -5 -4 -6 -1 -2 6 6 9 13 8 29 -6 12 -9 16 -11 10 -3
-19 21 -16 40 5 34 14 -5 15 -4 2 5 -9 6 -18 7 -24 1 -6 -6 -15 -10 -21 -10
-5 0 -3 4 5 10 16 10 23 100 7 97 -5 -1 -11 6 -12 17 -3 14 -1 16 8 7 20 -20
31 -12 12 9 -10 11 -14 20 -9 20 5 0 3 4 -4 9 -11 7 -11 9 1 14 11 4 15 0 12
-14 -3 -16 -1 -18 16 -9 23 13 26 22 4 13 -9 -3 -15 -2 -14 3 1 5 1 15 0 23
-1 11 -4 11 -18 0 -10 -8 -2 6 17 31 19 24 29 41 23 37 -7 -5 -13 -4 -13 2 0
6 5 11 11 11 5 0 7 5 3 12 -6 9 -9 9 -12 0 -4 -14 -22 -6 -22 9 0 6 5 7 10 4
6 -3 10 -1 10 6 0 8 4 8 13 1 10 -8 13 -6 14 11 1 12 -1 17 -5 12 -4 -6 -16
-12 -27 -13 -17 -3 -16 -1 5 16 18 15 28 17 38 10 9 -8 11 -7 6 6 -7 19 -18
20 -36 3 -15 -14 -33 -16 -45 -4 -4 5 -3 7 2 6 33 -10 64 25 42 47 -13 13 5
25 19 13 9 -8 11 -16 5 -23 -7 -8 -4 -12 10 -13 13 -1 18 3 15 10 -3 7 -9 20
-12 30 -4 9 -11 17 -18 17 -6 0 -3 5 7 11 13 7 15 15 8 27 -7 14 -5 18 10 19
10 1 19 -3 19 -8 0 -6 -4 -7 -10 -4 -14 9 -12 -8 3 -24 6 -8 7 -11 2 -8 -17 9
-16 -30 1 -44 10 -8 14 -8 14 0 0 6 -4 11 -10 11 -5 0 -10 4 -10 10 0 5 6 7
14 4 8 -3 17 -1 21 5 3 6 0 9 -7 6 -9 -4 -14 2 -15 16 -2 18 0 19 14 7 14 -11
15 -11 8 2 -10 16 -16 38 -16 55 0 29 6 53 13 49 4 -3 8 -1 8 5 0 6 7 8 15 5
8 -4 12 -10 9 -15 -3 -5 0 -9 5 -9 14 0 14 13 0 27 -8 8 -5 15 10 25 12 8 18
18 14 21 -6 7 13 11 32 7 6 -1 4 4 -2 11 -19 19 -16 27 10 25 17 -1 22 5 23
24 1 14 -2 30 -7 36 -5 6 -1 19 12 32 11 12 17 27 13 34 -4 6 -3 8 4 4 6 -3
15 1 20 10 6 11 11 13 16 5 9 -14 -2 -33 -15 -26 -8 6 -13 -9 -10 -28 1 -5 -3
-6 -9 -2 -6 4 -7 -1 -4 -12 4 -14 3 -15 -4 -4 -6 8 -12 9 -16 3 -3 -5 1 -12 9
-16 9 -3 19 3 25 14 6 11 7 20 3 20 -4 0 2 6 12 14 11 8 23 12 28 9 4 -2 6 1
5 9 -2 7 4 12 14 10 9 -1 19 1 22 6 3 5 -6 8 -20 6 -15 -1 -28 4 -31 12 -3 8
-10 11 -16 7 -6 -3 -7 -1 -3 6 4 6 11 9 15 7 9 -6 67 44 73 64 3 10 6 8 10 -8
4 -15 2 -20 -5 -16 -7 4 -6 1 1 -7 11 -12 15 -11 23 4 6 9 15 14 21 11 6 -4 9
-3 5 2 -3 5 6 14 19 21 14 6 26 7 30 2 3 -5 10 -9 17 -9 6 0 3 6 -8 13 -12 10
-14 16 -7 21 7 4 12 1 12 -6 1 -7 6 -3 13 10 7 12 17 19 22 15 4 -4 5 -2 1 5
-4 7 -2 12 6 12 10 0 10 2 0 9 -8 4 -13 12 -12 17 1 5 -4 10 -12 12 -11 3 -11
2 0 -6 10 -7 10 -11 -2 -21 -8 -7 -12 -20 -9 -29 3 -9 2 -14 -2 -9 -5 4 -15 1
-24 -7 -9 -8 -23 -16 -31 -18 -8 -2 -20 -9 -26 -17 -10 -12 -13 -11 -23 10
-11 22 -11 22 2 6 12 -15 16 -15 20 -3 3 8 1 17 -6 20 -9 3 -9 5 0 5 6 1 14
-3 18 -9 3 -5 12 -7 21 -3 12 5 12 7 -3 20 -16 13 -16 13 4 3 18 -8 24 -7 32
9 6 10 7 22 3 26 -4 5 -1 4 7 0 11 -6 13 -4 8 8 -10 26 13 31 38 7 17 -16 25
-18 30 -9 5 7 4 10 -3 5 -6 -3 -13 -2 -16 3 -3 5 1 11 9 15 8 3 17 0 21 -5 4
-7 10 -7 17 0 16 16 31 13 18 -3 -8 -10 -9 -16 -1 -21 6 -4 9 -1 8 7 -2 7 3
12 10 11 19 -4 14 11 -8 25 -11 7 -20 9 -20 4 0 -4 -15 -7 -34 -7 -19 0 -32 4
-29 8 3 5 13 7 23 4 9 -2 23 -1 31 3 8 4 25 3 39 -2 31 -13 70 -16 64 -6 -3 4
-13 8 -22 8 -14 0 -15 2 -2 10 9 6 19 5 28 -2 10 -9 17 -6 28 11 9 12 20 18
26 15 6 -4 8 -2 4 4 -3 6 -2 13 3 16 5 4 11 1 14 -6 2 -8 3 -7 3 2 -1 8 -6 15
-13 15 -6 0 -15 3 -19 8 -4 4 0 7 10 7 9 0 15 4 12 9 -8 12 20 22 41 14 10 -4
14 -2 10 4 -4 7 0 10 10 9 10 -2 28 0 40 5 16 6 21 5 17 -5 -3 -7 2 -19 10
-26 9 -7 13 -17 9 -24 -3 -6 -2 -7 3 -3 5 5 9 14 9 20 0 7 8 12 17 12 24 0 33
12 20 28 -9 10 -8 14 3 14 8 0 11 -5 8 -10 -3 -5 0 -7 8 -5 8 3 13 12 13 21
-1 9 2 14 6 12 5 -3 8 -14 7 -25z m-57 -15 c11 -13 10 -14 -3 -10 -8 4 -18 1
-22 -4 -3 -6 -11 -9 -16 -5 -5 3 -7 10 -3 15 3 5 10 7 15 4 5 -4 9 -1 9 4 0
15 5 14 20 -4z m560 -5 c0 -5 -2 -10 -4 -10 -3 0 -8 5 -11 10 -3 6 -1 10 4 10
6 0 11 -4 11 -10z m-1868 -24 c7 4 8 2 4 -5 -9 -13 -26 -5 -25 12 0 9 2 8 6
-1 2 -6 10 -9 15 -6z m1063 -5 c3 -5 2 -12 -3 -15 -5 -3 -9 1 -9 9 0 17 3 19
12 6z m49 -33 c-3 -5 -12 -7 -20 -4 -8 3 -11 0 -8 -8 6 -17 -12 -31 -21 -17
-3 6 -13 8 -23 5 -14 -5 -14 -4 -2 4 8 6 18 8 22 6 4 -3 8 1 8 9 0 9 10 15 25
15 13 0 22 -5 19 -10z m-91 -38 c3 -11 1 -18 -4 -14 -5 3 -9 12 -9 20 0 20 7
17 13 -6z m1027 0 c0 -5 -4 -10 -10 -10 -5 0 -10 5 -10 10 0 6 5 10 10 10 6 0
10 -4 10 -10z m77 -27 c-4 -3 1 -12 11 -20 15 -13 15 -13 -6 -3 -19 9 -23 30
-5 30 4 0 3 -3 0 -7z m-2226 -56 c-7 -7 -14 -8 -21 -1 -6 6 -2 10 12 11 16 2
18 -1 9 -10z m2369 -57 c0 -5 -2 -10 -4 -10 -3 0 -8 5 -11 10 -3 6 -1 10 4 10
6 0 11 -4 11 -10z m878 -10 c-7 -11 -19 -20 -27 -20 -8 0 -4 8 10 20 30 25 32
25 17 0z m-3258 -14 c0 -2 -7 -9 -15 -16 -13 -11 -14 -10 -9 4 5 14 24 23 24
12z m2417 -21 c0 -8 -4 -12 -9 -9 -5 3 -6 10 -3 15 9 13 12 11 12 -6z m903
-20 c11 -13 10 -14 -4 -9 -9 3 -16 10 -16 15 0 13 6 11 20 -6z m-42 -40 c-3
-3 -9 2 -12 12 -6 14 -5 15 5 6 7 -7 10 -15 7 -18z m-2538 5 c0 -5 -2 -10 -4
-10 -3 0 -8 5 -11 10 -3 6 -1 10 4 10 6 0 11 -4 11 -10z m1700 -17 c0 -19 -13
-9 -16 12 -1 8 2 13 7 9 5 -3 9 -12 9 -21z m56 1 c1 -9 0 -13 -4 -10 -3 4 -7
14 -8 22 -1 9 0 13 4 10 3 -4 7 -14 8 -22z m824 -34 c6 -11 8 -20 6 -20 -3 0
-10 9 -16 20 -6 11 -8 20 -6 20 3 0 10 -9 16 -20z m35 11 c3 -5 1 -12 -5 -16
-5 -3 -10 1 -10 9 0 18 6 21 15 7z m8 -58 c3 -5 -5 -8 -18 -8 -13 0 -21 3 -18
8 2 4 10 7 18 7 8 0 16 -3 18 -7z m-2656 -34 c2 -18 1 -20 -6 -9 -5 8 -8 17
-5 21 2 4 -1 10 -6 12 -6 3 -5 4 1 3 7 -1 14 -13 16 -27z m-810 6 c0 -8 -4
-12 -9 -9 -5 3 -6 10 -3 15 9 13 12 11 12 -6z m2679 3 c-1 -7 -5 -18 -9 -25
-4 -6 -3 -14 2 -17 5 -4 11 -1 13 6 3 8 6 6 10 -4 7 -17 -2 -17 -35 -3 -17 7
-17 8 0 21 15 11 15 13 3 14 -13 0 -13 1 0 10 19 12 19 12 16 -2z m-1886 -23
c0 -3 -6 -4 -12 -2 -7 1 -12 -6 -12 -15 1 -14 -2 -15 -16 -8 -9 5 -19 8 -21 7
-2 -1 -2 0 -1 3 2 3 9 5 15 5 7 0 11 8 11 17 -1 14 2 15 17 7 11 -5 19 -12 19
-14z m-52 -57 c-8 -12 -21 -24 -29 -26 -9 -2 -8 2 4 11 24 20 21 30 -5 17 -22
-11 -22 -10 -4 4 11 9 26 16 34 16 12 0 12 -3 0 -22z m2722 -18 c0 -5 -5 -10
-11 -10 -5 0 -7 5 -4 10 3 6 8 10 11 10 2 0 4 -4 4 -10z m-726 -35 c-4 -9 0
-15 7 -15 11 0 11 -2 -1 -9 -21 -14 -32 -3 -20 20 13 22 22 26 14 4z m-2774
-5 c0 -5 -2 -10 -4 -10 -3 0 -8 5 -11 10 -3 6 -1 10 4 10 6 0 11 -4 11 -10z
m-15 -27 c3 -10 0 -11 -15 -3 -25 13 -40 12 -17 -1 18 -10 18 -12 -2 -25 -20
-14 -19 -45 1 -41 6 1 13 -5 15 -13 4 -13 3 -13 -6 0 -6 8 -11 11 -11 6 0 -5
-7 -3 -15 4 -10 8 -15 9 -15 2 0 -6 6 -15 14 -19 12 -6 9 -11 -12 -21 -19 -9
-23 -9 -14 0 14 14 16 32 3 23 -20 -12 -19 12 1 29 15 13 17 21 9 29 -8 8 -6
15 5 28 18 20 51 21 59 2z m2805 -13 c-8 -5 -19 -10 -25 -10 -5 0 -3 5 5 10 8
5 20 10 25 10 6 0 3 -5 -5 -10z m10 -18 c0 -15 -11 -21 -27 -15 -12 5 -12 7
-1 14 17 11 28 11 28 1z m34 0 c3 -5 -1 -9 -9 -9 -8 0 -12 4 -9 9 3 4 7 8 9 8
2 0 6 -4 9 -8z m-2840 -20 c3 -5 -1 -9 -9 -9 -8 0 -12 4 -9 9 3 4 7 8 9 8 2 0
6 -4 9 -8z m661 -12 c-3 -5 -1 -10 6 -10 7 0 10 -3 6 -6 -9 -9 -28 6 -22 17 4
5 8 9 11 9 3 0 2 -4 -1 -10z m2174 -27 c10 8 13 9 8 0 -4 -7 0 -13 10 -16 10
-3 5 -4 -10 -4 -16 1 -33 8 -40 17 -9 12 -9 13 3 3 11 -10 17 -10 29 0z
m-2896 -38 c-3 -9 -8 -14 -10 -11 -3 3 -2 9 2 15 9 16 15 13 8 -4z m3647 5 c0
-5 -5 -10 -11 -10 -5 0 -7 5 -4 10 3 6 8 10 11 10 2 0 4 -4 4 -10z m-2940 -29
c0 -6 -4 -12 -8 -15 -5 -3 -9 1 -9 9 0 8 4 15 9 15 4 0 8 -4 8 -9z m2976 -34
c1 -9 -2 -15 -7 -11 -5 3 -9 1 -9 -5 0 -5 5 -13 10 -16 15 -9 12 -22 -6 -29
-14 -5 -15 -4 -4 9 11 14 7 19 -12 16 -12 -2 -9 14 4 27 9 9 9 12 -1 12 -7 0
-9 5 -6 11 9 14 28 6 31 -14z m-3716 -66 c0 -6 -4 -12 -8 -15 -5 -3 -9 1 -9 9
0 8 4 15 9 15 4 0 8 -4 8 -9z m726 -23 c10 -12 13 -18 7 -14 -7 4 -13 2 -13
-3 0 -6 -4 -11 -8 -11 -4 0 -8 11 -8 25 0 14 1 25 1 25 1 0 10 -10 21 -22z
m3000 -21 c1 -18 0 -26 -3 -19 -3 6 -10 9 -16 5 -7 -4 -6 1 2 10 13 16 8 22
-13 18 -5 -1 -3 5 4 14 16 20 23 13 26 -28z m-3715 -30 c-10 -9 -11 -8 -5 6 3
10 9 15 12 12 3 -3 0 -11 -7 -18z m693 -125 c3 -5 -1 -9 -9 -9 -8 0 -12 4 -9
9 3 4 7 8 9 8 2 0 6 -4 9 -8z m-707 -147 c0 -8 -4 -12 -9 -9 -4 3 -8 9 -8 15
0 5 4 9 8 9 5 0 9 -7 9 -15z m743 -110 c0 -2 -10 -9 -22 -15 -22 -11 -22 -10
-4 4 21 17 26 19 26 11z m-735 -33 c-3 -3 -11 0 -18 7 -9 10 -8 11 6 5 10 -3
15 -9 12 -12z m2995 3 c-7 -9 -15 -13 -19 -10 -3 3 1 10 9 15 21 14 24 12 10
-5z m-2969 -42 c13 -16 12 -17 -3 -4 -10 7 -18 15 -18 17 0 8 8 3 21 -13z
m734 -55 c-1 -12 -7 -24 -13 -26 -15 -5 -15 3 -2 29 14 25 17 24 15 -3z m-713
-12 c7 4 8 2 4 -4 -9 -16 -36 -3 -36 17 1 14 2 14 11 -2 6 -9 15 -14 21 -11z
m2921 -13 c-5 -12 -3 -14 8 -8 12 8 12 6 0 -8 -17 -22 -19 -21 -16 6 3 25 3
27 10 27 2 0 1 -7 -2 -17z m-2213 -33 c0 -5 -2 -10 -4 -10 -3 0 -8 5 -11 10
-3 6 -1 10 4 10 6 0 11 -4 11 -10z m74 -52 c-3 -4 -2 -14 3 -20 13 -22 12 -38
-5 -47 -14 -7 -17 -4 -19 17 0 15 2 20 7 12 4 -6 10 -8 13 -3 3 5 -7 24 -22
42 -27 31 -29 32 -40 15 -6 -11 -10 -14 -11 -9 0 19 18 38 29 31 6 -4 11 -1
11 6 0 7 9 2 19 -12 11 -13 17 -28 15 -32z m2099 36 c-2 -7 -11 -15 -19 -18
-9 -3 -12 -11 -8 -17 4 -8 3 -9 -4 -5 -7 4 -12 2 -12 -3 0 -6 -5 -11 -11 -11
-8 0 -8 5 1 15 7 8 9 15 6 15 -4 0 -2 9 4 19 11 21 51 25 43 5z m-2853 1 c0
-7 -30 -13 -34 -7 -3 4 4 9 15 9 10 1 19 0 19 -2z m2857 -40 c0 -8 -4 -12 -9
-9 -5 3 -6 10 -3 15 9 13 12 11 12 -6z m-2132 -13 c-3 -3 -11 0 -18 7 -9 10
-8 11 6 5 10 -3 15 -9 12 -12z m2925 -31 c0 -3 -5 -13 -10 -21 -8 -12 -11 -13
-22 -2 -7 8 -8 13 -3 12 22 -5 27 1 15 15 -11 13 -10 14 4 9 9 -3 16 -9 16
-13z m-862 -22 c-12 -8 -4 -13 15 -10 5 1 6 -3 2 -9 -5 -8 -11 -8 -19 -1 -7 6
-17 7 -22 3 -4 -4 -3 0 4 9 6 9 9 19 5 23 -4 4 1 4 11 0 14 -5 15 -9 4 -15z
m-2003 -49 c4 -6 10 -8 13 -6 4 2 12 -7 19 -20 6 -13 7 -22 2 -18 -5 3 -9 -3
-10 -13 0 -14 -2 -15 -6 -3 -4 8 -15 21 -25 28 -11 8 -17 19 -15 25 2 7 -3 18
-12 25 -14 11 -13 12 6 2 12 -5 25 -15 28 -20z m2860 -11 c-4 -5 -12 -9 -18
-8 -9 0 -8 2 1 6 6 2 9 10 6 15 -4 7 -2 8 5 4 6 -4 9 -12 6 -17z m-850 -8 c3
-5 2 -12 -3 -15 -5 -3 -9 1 -9 9 0 17 3 19 12 6z m-1928 -92 c-9 -6 -15 -14
-12 -19 3 -5 1 -11 -4 -14 -5 -4 -8 2 -6 11 2 10 4 21 4 26 1 4 9 7 19 7 16
-1 16 -1 -1 -11z m2789 -27 c-6 -5 -36 23 -36 34 0 4 9 -1 20 -11 11 -10 18
-20 16 -23z m-2766 10 c0 -5 -7 -17 -16 -28 -15 -18 -15 -18 -5 2 6 12 7 24 4
28 -3 3 -1 6 5 6 7 0 12 -4 12 -8z m2755 -43 c-4 -5 -12 -9 -18 -8 -9 0 -8 2
1 6 6 2 9 10 6 15 -4 7 -2 8 5 4 6 -4 9 -12 6 -17z m-961 3 c3 -5 -1 -9 -9 -9
-8 0 -12 4 -9 9 3 4 7 8 9 8 2 0 6 -4 9 -8z m-1748 -64 c3 -4 -1 -5 -10 -4 -8
1 -18 5 -22 8 -3 4 1 5 10 4 8 -1 18 -5 22 -8z m-781 -28 c-3 -5 -12 -10 -18
-10 -7 0 -6 4 3 10 19 12 23 12 15 0z m820 -10 c3 -5 1 -10 -4 -10 -6 0 -11 5
-11 10 0 6 2 10 4 10 3 0 8 -4 11 -10z m1546 -34 c7 4 9 3 6 -3 -12 -20 -43
-21 -43 -2 0 13 4 15 13 8 7 -6 18 -7 24 -3z m-1437 -44 c3 -5 -1 -9 -9 -9 -8
0 -12 4 -9 9 3 4 7 8 9 8 2 0 6 -4 9 -8z m1406 4 c0 -2 -7 -7 -16 -10 -8 -3
-12 -2 -9 4 6 10 25 14 25 6z m-1321 -51 c5 2 16 -4 26 -15 10 -11 21 -18 24
-15 4 2 7 -5 7 -16 0 -17 -2 -18 -11 -6 -5 8 -18 13 -28 11 -11 -1 -17 0 -14
3 3 2 -2 13 -11 24 -16 18 -17 18 -23 2 -5 -12 -7 -7 -6 15 0 31 1 31 14 12 8
-11 18 -18 22 -15z m1173 -33 c-4 -11 -1 -13 8 -7 9 6 11 4 5 -4 -5 -9 -11 -9
-17 -3 -6 6 -18 8 -27 4 -13 -5 -14 -3 -4 9 16 20 43 20 35 1z m-2122 -22 c0
-5 -2 -10 -4 -10 -3 0 -8 5 -11 10 -3 6 -1 10 4 10 6 0 11 -4 11 -10z m1119
-23 c-27 -26 -46 -30 -53 -11 -3 8 0 11 9 8 8 -3 22 1 30 10 9 9 21 16 27 16
6 0 0 -10 -13 -23z m965 5 c3 -5 -1 -9 -9 -9 -8 0 -12 4 -9 9 3 4 7 8 9 8 2 0
6 -4 9 -8z m-2034 -16 c0 -2 -8 -10 -17 -17 -16 -13 -17 -12 -4 4 13 16 21 21
21 13z m1970 -11 c0 -2 -10 -9 -22 -15 -22 -11 -22 -10 -4 4 21 17 26 19 26
11z m-900 -35 c0 -5 -2 -10 -4 -10 -3 0 -8 5 -11 10 -3 6 -1 10 4 10 6 0 11
-4 11 -10z m140 -15 c14 9 23 -16 11 -28 -9 -9 -11 -8 -6 4 4 12 1 16 -12 15
-18 -1 -23 5 -23 27 0 6 5 4 11 -6 6 -9 14 -15 19 -12z m714 17 c3 -5 -1 -9
-9 -9 -8 0 -15 4 -15 9 0 4 4 8 9 8 6 0 12 -4 15 -8z m-38 -28 c1 -9 0 -13 -4
-10 -3 4 -7 14 -8 22 -1 9 0 13 4 10 3 -4 7 -14 8 -22z m1494 -13 c0 -3 -5
-13 -10 -21 -8 -12 -11 -13 -22 -2 -7 8 -8 13 -3 12 22 -5 27 1 15 15 -11 13
-10 14 4 9 9 -3 16 -9 16 -13z m-1590 0 c0 -6 -4 -12 -8 -15 -5 -3 -9 1 -9 9
0 8 4 15 9 15 4 0 8 -4 8 -9z m-1665 -60 c3 -5 2 -12 -3 -15 -5 -3 -9 1 -9 9
0 17 3 19 12 6z m3250 -22 c-4 -5 -12 -9 -18 -8 -9 0 -8 2 1 6 6 2 9 10 6 15
-4 7 -2 8 5 4 6 -4 9 -12 6 -17z m-3202 -69 c-7 -26 -19 -34 -29 -19 -4 7 -3
9 3 6 6 -4 13 2 16 13 3 11 7 20 10 20 3 0 3 -9 0 -20z m13 -27 c-3 -4 4 -13
16 -20 13 -7 17 -12 10 -13 -7 0 -10 -5 -7 -11 4 -6 -1 -5 -13 2 -16 10 -20
23 -13 47 1 1 4 2 8 2 3 0 3 -3 -1 -7z m84 -43 c0 -5 -2 -10 -4 -10 -3 0 -8 5
-11 10 -3 6 -1 10 4 10 6 0 11 -4 11 -10z m45 -48 c-3 -3 -11 0 -18 7 -9 10
-8 11 6 5 10 -3 15 -9 12 -12z m3064 -15 c0 -9 -2 -8 -6 1 -2 6 -10 9 -15 6
-7 -4 -8 -2 -4 5 9 13 26 5 25 -12z m-3037 -11 c4 3 8 1 8 -5 0 -10 -66 -8
-77 3 -3 3 -1 6 6 6 7 0 10 4 6 10 -3 5 7 3 21 -5 15 -8 31 -12 36 -9z m3033
-27 c-4 -5 -12 -9 -18 -8 -9 0 -8 2 1 6 6 2 9 10 6 15 -4 7 -2 8 5 4 6 -4 9
-12 6 -17z m-5 -119 c0 -5 -5 -10 -11 -10 -5 0 -7 5 -4 10 3 6 8 10 11 10 2 0
4 -4 4 -10z m-2785 -30 c-3 -5 -1 -11 5 -15 5 -3 10 -1 10 6 0 7 3 10 6 6 3
-3 3 -10 0 -16 -10 -16 -35 -2 -33 19 1 10 5 16 9 14 5 -3 6 -9 3 -14z m2361
-17 c-3 -20 -22 -28 -31 -14 -4 7 0 8 10 5 9 -4 15 -3 14 2 -2 13 0 24 5 24 2
0 3 -8 2 -17z m-144 -15 c-20 -20 -13 -32 7 -14 20 18 61 14 61 -5 0 -6 5 -7
10 -4 8 5 8 11 0 20 -8 10 -8 15 1 21 7 4 9 3 5 -4 -3 -6 1 -15 10 -20 11 -6
15 -16 10 -27 -6 -16 -8 -16 -30 -1 -21 13 -26 13 -36 1 -7 -8 -17 -12 -24 -8
-17 11 -56 11 -62 1 -3 -5 -11 -5 -18 1 -14 12 -52 7 -72 -10 -10 -8 -14 -8
-14 0 0 6 -5 11 -11 11 -5 0 -7 -4 -4 -10 15 -24 -4 -7 -21 18 -11 17 -12 23
-3 16 8 -6 30 -11 49 -12 19 0 29 2 23 5 -10 4 -9 8 1 19 18 18 32 18 17 1 -6
-8 -8 -17 -4 -20 3 -4 12 1 20 11 12 16 14 16 26 0 8 -10 17 -15 20 -11 4 3 1
13 -6 22 -11 14 -10 15 7 1 17 -13 20 -13 30 2 5 9 12 15 15 12 3 -2 -1 -10
-7 -16z m205 7 c0 -8 -4 -12 -9 -9 -5 3 -6 10 -3 15 9 13 12 11 12 -6z m-344
-7 c-2 -5 -13 -8 -23 -8 -10 0 -21 3 -23 8 -3 4 8 7 23 7 15 0 26 -3 23 -7z
m401 3 c-8 -8 -43 -8 -38 0 2 4 13 7 24 6 10 -1 17 -3 14 -6z m-2338 -23 c3
-4 -1 -5 -10 -4 -8 1 -18 5 -22 8 -3 4 1 5 10 4 8 -1 18 -5 22 -8z m1755 -5
c12 -16 12 -17 -2 -6 -9 7 -20 9 -24 5 -5 -4 -5 -1 -1 6 9 16 11 15 27 -5z
m489 5 c0 -9 4 -8 10 2 6 9 10 10 10 3 0 -17 -17 -25 -25 -13 -5 8 -11 8 -20
0 -10 -8 -15 -8 -21 1 -4 7 -3 9 4 5 6 -3 13 -2 17 4 9 14 25 13 25 -2z m400
2 c0 -5 -2 -10 -4 -10 -3 0 -8 5 -11 10 -3 6 -1 10 4 10 6 0 11 -4 11 -10z
m-924 -35 c1 -8 -2 -15 -6 -15 -5 0 -8 9 -7 20 1 21 10 18 13 -5z m155 -12
c13 -16 12 -17 -3 -4 -17 13 -22 21 -14 21 2 0 10 -8 17 -17z m-1849 -11 c-7
-2 -9 -8 -6 -14 4 -7 14 -1 26 13 l19 24 -12 -27 c-13 -30 -39 -45 -39 -22 0
8 -7 17 -16 21 -12 4 -13 8 -3 13 7 5 19 5 28 2 10 -4 11 -7 3 -10z m78 -26
c0 6 7 11 16 11 14 0 14 -2 -2 -14 -16 -12 -20 -11 -31 4 -9 12 -13 13 -13 3
0 -7 -3 -11 -6 -7 -3 3 -3 11 2 18 5 9 11 7 21 -6 7 -11 13 -14 13 -9z m100 4
c0 -5 -4 -10 -10 -10 -5 0 -10 5 -10 10 0 6 5 10 10 10 6 0 10 -4 10 -10z
m1266 -13 c8 3 14 1 14 -5 0 -13 -27 -9 -40 6 -7 8 -7 9 1 3 6 -5 18 -7 25 -4z
m-210 -22 c1 -8 -1 -13 -6 -10 -5 3 -10 -1 -13 -7 -2 -7 -8 -9 -13 -5 -5 5 -1
13 9 18 9 6 14 16 11 22 -4 7 -3 8 1 4 5 -4 10 -14 11 -22z m60 6 c-4 -5 -1
-11 6 -13 8 -3 6 -6 -4 -10 -11 -5 -15 -2 -13 10 5 23 4 22 11 22 3 0 3 -4 0
-9z m-966 -15 c0 -2 -7 -7 -16 -10 -8 -3 -12 -2 -9 4 6 10 25 14 25 6z m40
-12 c0 -8 -19 -13 -24 -6 -3 5 1 9 9 9 8 0 15 -2 15 -3z m785 -4 c-3 -5 -14
-10 -23 -9 -14 0 -13 2 3 9 27 11 27 11 20 0z m-118 -25 c-7 -17 12 -32 22
-18 6 10 47 11 57 1 3 -3 1 -9 -5 -13 -6 -3 -11 -1 -11 4 0 6 -4 11 -10 11 -5
0 -9 -6 -7 -12 3 -18 -36 -17 -49 1 -11 14 -9 41 3 41 3 0 3 -7 0 -15z m-140
-30 c0 -8 -4 -12 -9 -9 -5 3 -6 10 -3 15 9 13 12 11 12 -6z"/>
<path d="M1964 4288 c-19 -23 -19 -23 2 -5 11 9 24 14 29 10 4 -5 5 -2 1 5 -9
16 -10 16 -32 -10z"/>
<path d="M3235 4220 c3 -5 8 -10 11 -10 2 0 4 5 4 10 0 6 -5 10 -11 10 -5 0
-7 -4 -4 -10z"/>
<path d="M2514 3628 c-4 -7 -3 -8 4 -4 7 4 12 2 12 -4 0 -6 5 -8 10 -5 11 7 4
25 -10 25 -5 0 -12 -5 -16 -12z"/>
<path d="M2419 3628 c0 -2 -2 -11 -4 -21 -3 -15 -1 -16 11 -6 7 6 11 15 8 20
-5 9 -13 12 -15 7z"/>
<path d="M2459 3627 c0 -1 -2 -10 -4 -20 -3 -17 -2 -17 14 -3 10 9 20 15 22
14 2 -2 3 -1 1 1 -2 5 -31 11 -33 8z"/>
<path d="M2630 3621 c0 -5 5 -13 10 -16 6 -3 10 -2 10 4 0 5 -4 13 -10 16 -5
3 -10 2 -10 -4z"/>
<path d="M2199 3615 c0 0 -2 -11 -4 -25 -2 -14 -1 -20 1 -13 3 7 11 11 17 9 7
-1 9 -1 4 1 -4 3 -4 9 -1 14 3 6 11 5 20 -2 12 -10 13 -9 8 4 -4 12 -31 19
-45 12z"/>
<path d="M2676 3603 c-6 -14 -5 -15 5 -6 7 7 10 15 7 18 -3 3 -9 -2 -12 -12z"/>
<path d="M2146 3595 c-4 -12 -1 -16 11 -13 18 3 21 20 5 26 -5 1 -12 -4 -16
-13z"/>
<path d="M2735 3580 c3 -5 8 -10 11 -10 2 0 4 5 4 10 0 6 -5 10 -11 10 -5 0
-7 -4 -4 -10z"/>
<path d="M2160 3559 c0 -5 5 -7 10 -4 6 3 10 8 10 11 0 2 -4 4 -10 4 -5 0 -10
-5 -10 -11z"/>
<path d="M2870 3532 c0 -4 9 -8 19 -8 11 0 17 4 15 8 -3 4 -12 8 -20 8 -8 0
-14 -4 -14 -8z"/>
<path d="M2107 3523 c-3 -5 5 -8 18 -8 13 0 21 3 18 8 -2 4 -10 7 -18 7 -8 0
-16 -3 -18 -7z"/>
<path d="M2990 3501 c0 -3 4 -12 9 -19 6 -11 9 -9 13 5 3 12 0 20 -8 20 -8 0
-14 -3 -14 -6z"/>
<path d="M3070 3482 c0 -7 5 -12 11 -12 5 0 7 -5 4 -10 -4 -6 -3 -10 2 -9 20
3 27 -2 13 -11 -9 -6 -10 -10 -3 -10 23 0 22 17 -2 40 -14 13 -25 18 -25 12z"/>
<path d="M3210 3360 c5 -9 6 -21 2 -26 -4 -5 0 -3 9 4 9 6 19 8 24 4 4 -4 3 2
-2 12 -6 11 -18 21 -27 22 -12 2 -14 -2 -6 -16z"/>
<path d="M1708 3316 c-16 -12 -28 -25 -28 -28 0 -8 21 -5 37 5 7 4 16 0 22
-10 9 -14 10 -11 5 17 -3 19 -6 35 -7 36 -1 1 -14 -8 -29 -20z m28 -8 c4 -7 4
-10 -1 -6 -4 4 -15 2 -24 -5 -14 -11 -14 -10 -2 6 16 20 18 21 27 5z"/>
<path d="M3370 3199 c0 -5 5 -9 11 -9 7 0 9 -10 5 -27 -5 -21 -4 -24 4 -13 9
14 15 7 10 -15 -1 -5 2 -6 6 -2 18 17 10 53 -13 64 -12 6 -23 7 -23 2z"/>
<path d="M3473 3072 c-9 -6 -7 -11 6 -19 15 -10 19 -9 17 2 -3 20 -10 25 -23
17z"/>
<path d="M2463 3009 c15 -23 15 -24 -8 -25 -17 -1 -25 3 -25 15 0 14 2 14 10
1 5 -8 10 -10 10 -4 0 16 -10 23 -26 17 -9 -3 -13 -14 -9 -27 2 -11 2 -15 -1
-8 -3 6 -12 12 -20 12 -9 0 -12 5 -8 12 4 6 3 8 -4 4 -5 -3 -13 0 -15 6 -4 10
-6 10 -6 0 -1 -7 -6 -10 -13 -6 -7 5 -8 3 -3 -6 6 -10 4 -12 -8 -7 -11 4 -14
2 -10 -9 3 -8 -1 -14 -10 -14 -12 0 -14 7 -11 27 3 15 2 25 -1 21 -4 -3 -8
-14 -9 -25 -2 -10 -11 -17 -20 -17 -8 1 -14 -2 -11 -6 3 -5 0 -10 -7 -12 -7
-3 -5 -7 6 -11 11 -5 15 -3 10 5 -4 7 -3 8 4 4 7 -4 12 -2 12 5 0 7 3 10 6 6
17 -17 -75 -99 -110 -96 -6 0 -2 4 8 8 11 4 20 15 22 24 1 10 -2 15 -7 11 -5
-3 -7 -10 -4 -15 6 -8 -16 -14 -38 -10 -4 1 -15 -5 -23 -14 -9 -8 -11 -15 -6
-15 6 0 13 -7 16 -16 3 -8 2 -12 -3 -9 -5 3 -12 1 -16 -5 -3 -5 0 -10 7 -10
10 0 10 -2 -1 -9 -8 -5 -11 -16 -8 -24 4 -11 1 -14 -7 -11 -15 6 -17 34 -3 34
6 0 7 3 4 7 -4 3 -2 12 3 18 8 9 6 14 -4 18 -11 4 -13 1 -9 -10 4 -10 2 -14
-4 -10 -6 4 -10 -1 -9 -10 0 -10 -4 -18 -11 -18 -6 0 -15 -4 -20 -9 -4 -5 -3
-6 4 -2 14 8 25 -8 29 -41 1 -14 -2 -21 -9 -16 -7 4 -8 0 -4 -11 4 -9 3 -15
-1 -12 -11 7 -64 -29 -55 -37 3 -4 1 -7 -5 -7 -18 0 -14 18 6 29 9 6 13 10 7
10 -20 0 -40 -24 -39 -47 1 -12 -3 -25 -7 -28 -12 -7 -11 -24 2 -24 5 0 8 4 4
9 -3 5 -1 12 5 16 6 4 8 10 5 15 -7 11 22 7 32 -5 4 -4 3 -5 -3 -2 -15 9 -29
-12 -29 -43 0 -15 -9 -31 -23 -41 -20 -14 -21 -18 -8 -28 16 -13 36 -7 36 11
0 7 -6 6 -15 -2 -9 -7 -15 -8 -15 -2 0 14 28 23 35 12 8 -14 -17 -49 -31 -43
-6 2 -15 -1 -20 -8 -5 -9 -2 -10 9 -6 12 4 21 -3 33 -24 8 -17 11 -28 5 -25
-6 4 -11 3 -11 -1 0 -5 9 -14 20 -21 11 -7 20 -18 20 -25 0 -6 -5 -4 -11 6
-12 21 -26 22 -26 2 0 -8 4 -15 9 -15 5 0 8 -6 7 -12 -3 -24 1 -39 9 -34 7 4
11 -10 14 -51 2 -17 8 -16 32 5 17 14 18 14 8 1 -10 -14 -10 -18 4 -23 9 -4
14 -9 10 -13 -3 -3 1 -15 11 -25 13 -14 13 -18 2 -18 -8 -1 -3 -7 11 -15 14
-8 19 -14 12 -15 -10 0 -10 -4 0 -20 9 -14 15 -16 21 -7 6 8 7 6 3 -5 -6 -20
10 -34 18 -16 3 7 3 3 1 -8 -4 -14 0 -24 10 -28 8 -3 15 -12 15 -20 0 -8 4
-18 10 -21 6 -3 7 1 4 10 -5 11 -2 14 12 9 11 -3 7 2 -8 11 -28 16 -37 35 -17
35 5 0 8 -4 5 -9 -3 -4 6 -13 20 -20 22 -10 24 -14 14 -26 -11 -13 -10 -14 4
-9 9 3 16 10 16 15 0 5 5 9 12 9 6 0 1 -12 -13 -27 l-24 -27 29 18 c16 10 26
13 22 8 -3 -6 -3 -12 1 -15 5 -2 3 -2 -4 -1 -15 4 -27 -12 -15 -20 5 -3 20 1
35 9 15 8 27 13 27 11 0 -8 -38 -45 -42 -41 -2 3 -5 -2 -5 -10 0 -10 4 -12 12
-5 7 5 16 6 20 2 5 -4 5 -1 1 6 -4 6 -3 12 3 12 5 0 12 -6 14 -12 4 -10 6 -10
6 0 1 6 8 12 17 12 8 0 13 4 10 8 -3 5 1 9 9 9 13 0 13 -4 -1 -25 -8 -13 -13
-26 -10 -29 3 -3 8 2 12 11 6 16 8 16 27 -1 11 -10 17 -12 13 -5 -4 7 -1 12 8
12 9 0 16 4 16 9 0 4 -11 7 -25 6 -14 -2 -23 0 -20 5 5 8 53 5 62 -4 3 -3 0
-12 -7 -21 -8 -10 -9 -15 -1 -15 6 0 11 4 11 9 0 17 40 19 50 3 7 -13 9 -14
10 -2 0 11 3 11 12 2 7 -7 17 -12 22 -12 6 0 -1 8 -14 17 -14 10 -28 17 -32
15 -5 -1 -8 3 -8 9 0 6 6 9 14 6 8 -3 17 -3 19 1 2 4 2 1 1 -5 -2 -7 3 -14 11
-14 32 -3 36 -5 46 -19 7 -11 8 -8 5 12 -6 34 3 41 29 21 16 -13 17 -15 3 -10
-10 4 -18 2 -18 -3 0 -14 13 -12 46 5 22 11 30 12 36 2 6 -9 8 -9 8 1 0 7 4
11 9 8 5 -3 12 1 15 10 3 8 10 13 15 10 8 -5 8 2 2 33 -1 2 -8 -2 -16 -9 -8
-7 -13 -16 -10 -20 3 -4 -2 -10 -10 -14 -8 -3 -15 -1 -15 4 0 6 -5 10 -11 10
-5 0 -8 -4 -4 -9 3 -6 -4 -8 -15 -6 -14 3 -18 0 -13 -8 4 -7 0 -6 -10 2 -9 7
-17 19 -17 25 0 6 5 4 10 -4 9 -13 10 -13 10 0 0 13 1 13 10 0 9 -13 14 -7 11
12 0 4 7 4 16 1 12 -5 14 -3 8 8 -7 12 -6 12 7 1 11 -9 18 -10 23 -2 3 5 2 10
-3 10 -5 0 -9 7 -9 16 0 15 1 15 12 0 7 -8 15 -13 18 -9 4 3 2 12 -4 20 -9 9
-8 13 0 13 6 0 11 -5 11 -11 0 -5 5 -7 10 -4 8 5 8 11 0 20 -8 10 -8 15 1 21
7 4 9 3 5 -4 -3 -6 3 -16 14 -22 11 -6 18 -16 14 -21 -3 -6 3 -5 15 3 12 7 19
19 16 27 -4 11 -2 11 8 2 11 -9 17 -8 27 4 7 8 16 12 21 9 5 -3 9 -1 9 5 0 5
-9 9 -19 8 -11 0 -17 -5 -15 -9 3 -4 -3 -5 -12 -1 -11 4 -13 8 -6 11 7 2 10 8
6 13 -3 5 0 8 8 7 7 -2 13 6 13 17 0 11 4 18 10 15 13 -7 16 -30 2 -30 -5 0
-8 -3 -4 -6 3 -3 14 -1 24 5 11 6 13 11 5 11 -7 0 -10 5 -7 10 4 6 10 8 15 5
10 -6 8 15 -4 33 -5 9 -3 13 5 11 15 -2 69 17 69 25 0 3 -7 3 -15 0 -11 -5
-13 -2 -9 10 3 9 11 13 17 9 6 -3 7 -1 3 6 -4 6 -2 19 6 28 11 14 11 16 -4 11
-9 -4 -24 0 -35 8 -17 14 -17 14 1 7 14 -5 17 -3 11 7 -6 10 -4 11 6 4 8 -5
25 -10 39 -11 23 -3 23 -2 -5 11 -21 10 -25 15 -12 16 9 2 22 4 27 5 6 1 13 3
16 4 11 2 -18 31 -30 31 -6 0 -5 -4 3 -9 9 -6 10 -11 2 -15 -6 -4 -11 -4 -12
1 0 4 -2 18 -3 31 -3 21 -1 21 20 7 17 -11 25 -12 30 -3 4 6 3 8 -3 5 -6 -4
-16 0 -22 7 -10 11 -9 16 4 23 13 8 12 11 -10 23 -14 7 -25 18 -25 23 0 5 5 5
13 -1 9 -8 17 -8 27 0 12 8 11 9 -3 4 -12 -4 -17 -2 -14 6 2 7 11 12 18 10 8
-2 2 9 -14 23 -20 20 -25 30 -18 43 5 9 9 21 9 25 0 14 12 22 12 9 0 -7 5 -12
11 -12 8 0 9 4 0 13 -6 8 -7 17 -3 21 4 4 1 6 -7 4 -7 -1 -16 3 -19 11 -3 8 0
11 7 7 7 -5 9 -1 5 8 -5 13 -9 12 -26 -7 -17 -19 -18 -20 -10 -2 5 11 7 26 4
34 -3 10 0 11 9 5 11 -6 10 -3 -1 12 -21 27 -43 43 -52 38 -5 -3 -8 -1 -8 5 0
5 3 11 8 14 4 2 1 2 -5 1 -13 -3 -17 7 -14 36 2 13 0 13 -8 1 -6 -9 -6 -21 0
-32 12 -23 11 -29 -2 -29 -5 0 -7 5 -3 12 5 8 2 9 -10 5 -10 -4 -15 -3 -11 3
3 6 0 10 -7 10 -10 0 -10 2 1 9 8 5 9 11 3 15 -6 3 -8 15 -5 26 3 11 9 18 12
15 4 -2 8 2 8 10 0 23 -12 18 -27 -10 -20 -37 -24 -23 -6 21 11 27 12 34 3 22
-10 -13 -17 -14 -25 -6 -8 8 -15 8 -27 -2 -13 -11 -19 -9 -40 10 -14 13 -29
19 -36 15 -8 -5 -10 -4 -5 3 4 7 1 12 -8 12 -8 0 -17 4 -20 9 -4 5 3 7 14 4
14 -4 20 0 20 11 0 9 -5 16 -11 16 -5 0 -7 -5 -3 -12 5 -7 3 -8 -6 -3 -10 6
-9 11 5 22 15 10 21 10 28 0 6 -9 7 -8 4 3 -2 8 -10 14 -17 12 -7 -1 -20 3
-29 10 -15 12 -15 11 -1 -6 14 -18 13 -18 -10 -11 -21 7 -23 6 -13 -7 10 -12
10 -15 -2 -15 -8 0 -13 3 -10 6 3 3 -5 11 -17 19 -13 7 -15 11 -6 8 10 -3 20
-1 23 4 3 5 -8 7 -25 5 -16 -2 -30 0 -30 5 0 6 5 10 11 10 5 0 7 5 3 11 -4 8
-14 -1 -26 -22 -11 -19 -17 -25 -13 -14 4 17 2 16 -15 -5 -11 -14 -20 -20 -19
-15 3 24 -2 27 -23 9 l-22 -19 20 27 c10 14 21 22 22 17 2 -5 8 -9 13 -9 16 0
10 15 -12 28 -12 8 -19 10 -16 5 2 -4 -3 -16 -13 -26 -16 -16 -18 -16 -30 -2
-11 13 -11 16 0 13 7 -2 15 4 17 12 3 9 1 11 -4 5 -10 -13 -23 -13 -42 -1 -9
6 -9 2 2 -15z m-90 -28 c3 -14 1 -18 -9 -14 -8 3 -14 -1 -14 -8 0 -7 -3 -10
-6 -7 -5 6 12 48 20 48 2 0 6 -9 9 -19z m277 -46 c0 -5 -5 -3 -10 5 -5 8 -10
20 -10 25 0 6 5 3 10 -5 5 -8 10 -19 10 -25z m-320 15 c0 -5 -4 -10 -10 -10
-5 0 -10 5 -10 10 0 6 5 10 10 10 6 0 10 -4 10 -10z m-20 -24 c0 -2 -7 -7 -16
-10 -8 -3 -12 -2 -9 4 6 10 25 14 25 6z m-24 -52 c1 -9 0 -13 -4 -10 -3 4 -7
14 -8 22 -1 9 0 13 4 10 3 -4 7 -14 8 -22z m475 -1 c13 -16 12 -17 -3 -4 -17
13 -22 21 -14 21 2 0 10 -8 17 -17z m-591 -9 c0 -8 -5 -12 -10 -9 -6 4 -8 11
-5 16 9 14 15 11 15 -7z m75 6 c-3 -5 -12 -10 -18 -10 -7 0 -6 4 3 10 19 12
23 12 15 0z m595 -13 c0 -7 -4 -6 -10 3 -8 12 -10 12 -10 1 0 -8 -3 -12 -6 -8
-9 9 6 28 17 22 5 -4 9 -12 9 -18z m-630 -13 c0 -8 -19 -13 -24 -6 -3 5 1 9 9
9 8 0 15 -2 15 -3z m744 -113 c9 -7 13 -18 10 -23 -4 -5 -15 -1 -28 10 -11 11
-28 17 -36 15 -12 -4 -13 -3 -1 5 17 12 34 10 55 -7z m-12 -34 c11 -9 14 -18
7 -28 -7 -12 -9 -11 -9 3 0 9 -8 22 -17 27 -10 6 -13 10 -8 10 6 0 18 -5 27
-12z m-855 -13 c-3 -3 -12 -4 -19 -1 -8 3 -5 6 6 6 11 1 17 -2 13 -5z m904
-57 c-13 -13 -26 -3 -16 12 3 6 11 8 17 5 6 -4 6 -10 -1 -17z m-946 -7 c3 -5
1 -10 -4 -10 -6 0 -11 5 -11 10 0 6 2 10 4 10 3 0 8 -4 11 -10z m965 -84 c0
-3 -4 -8 -10 -11 -5 -3 -10 -1 -10 4 0 6 5 11 10 11 6 0 10 -2 10 -4z m-10
-76 c-20 -13 -33 -13 -25 0 3 6 14 10 23 10 15 0 15 -2 2 -10z m-30 -70 c0 -5
-2 -10 -4 -10 -3 0 -8 5 -11 10 -3 6 -1 10 4 10 6 0 11 -4 11 -10z m-40 -84
c0 -3 -4 -8 -10 -11 -5 -3 -10 -1 -10 4 0 6 5 11 10 11 6 0 10 -2 10 -4z m20
-24 c0 -13 -29 -48 -30 -35 0 6 5 15 10 18 6 4 8 11 5 16 -4 5 -1 9 4 9 6 0
11 -4 11 -8z m-36 -17 c-4 -8 -11 -12 -16 -9 -6 4 -5 10 3 15 19 12 19 11 13
-6z m-15 -44 c7 -5 9 -11 5 -14 -5 -3 -15 1 -22 9 -14 16 -5 18 17 5z m-84
-92 c-2 -29 -12 -32 -17 -6 -3 14 0 24 7 24 6 0 11 -8 10 -18z m-560 -9 c16
-17 16 -20 3 -15 -9 4 -19 13 -22 21 -7 19 -2 18 19 -6z m97 -102 c-8 -8 -9
-4 -5 13 4 13 8 18 11 10 2 -7 -1 -18 -6 -23z m241 -1 c3 -8 -1 -14 -8 -14 -7
0 -11 6 -8 14 3 7 6 13 8 13 2 0 5 -6 8 -13z"/>
<path d="M2930 2736 c0 -2 8 -10 18 -17 15 -13 16 -12 3 4 -13 16 -21 21 -21
13z"/>
<path d="M2576 3018 c3 -5 10 -6 15 -3 13 9 11 12 -6 12 -8 0 -12 -4 -9 -9z"/>
<path d="M2675 3019 c-3 -4 2 -6 10 -5 21 3 28 13 10 13 -9 0 -18 -4 -20 -8z"/>
<path d="M1486 3012 c-3 -6 -3 -18 1 -28 5 -13 3 -15 -7 -9 -9 5 -11 4 -6 -4
4 -6 11 -9 16 -6 5 3 11 1 15 -5 3 -5 12 -10 18 -10 7 0 4 5 -6 11 -9 6 -15
14 -12 20 3 5 2 16 -3 25 -6 10 -12 13 -16 6z"/>
<path d="M2255 3000 c3 -5 8 -10 11 -10 2 0 4 5 4 10 0 6 -5 10 -11 10 -5 0
-7 -4 -4 -10z"/>
<path d="M3474 2976 c1 -8 5 -18 8 -22 4 -3 5 1 4 10 -1 8 -5 18 -8 22 -4 3
-5 -1 -4 -10z"/>
<path d="M2229 2963 c-13 -16 -12 -17 4 -4 9 7 17 15 17 17 0 8 -8 3 -21 -13z"/>
<path d="M2737 2936 c-4 -9 -3 -15 2 -12 5 3 11 -1 14 -8 3 -8 16 -20 28 -26
12 -7 19 -8 15 -2 -3 6 2 13 11 15 13 3 11 5 -7 7 -14 1 -28 2 -32 1 -5 0 -8
3 -8 8 0 5 3 11 8 14 4 2 2 2 -5 1 -6 -2 -13 2 -16 9 -2 6 -6 3 -10 -7z"/>
<path d="M2248 2922 c3 -10 1 -13 -6 -8 -7 4 -12 2 -12 -3 0 -17 18 -13 29 7
7 14 6 19 -4 19 -7 0 -11 -7 -7 -15z"/>
<path d="M3507 2879 c7 -7 15 -10 18 -7 3 3 -2 9 -12 12 -14 6 -15 5 -6 -5z"/>
<path d="M3540 2860 c0 -5 8 -10 18 -10 14 0 15 -2 2 -10 -8 -5 -10 -10 -4
-10 6 0 18 8 25 18 7 9 10 14 5 10 -5 -4 -17 -3 -27 3 -13 6 -19 6 -19 -1z"/>
<path d="M2875 2821 c-3 -5 -1 -12 5 -16 5 -3 10 1 10 9 0 18 -6 21 -15 7z"/>
<path d="M3540 2806 c0 -2 8 -10 18 -17 15 -13 16 -12 3 4 -13 16 -21 21 -21
13z"/>
<path d="M1450 2786 c0 -2 7 -7 16 -10 8 -3 12 -2 9 4 -6 10 -25 14 -25 6z"/>
<path d="M3600 2779 c-10 -6 -11 -9 -2 -9 6 0 12 -8 12 -17 0 -16 -2 -16 -11
-3 -7 10 -9 11 -7 2 5 -20 21 -16 30 7 8 24 -2 34 -22 20z"/>
<path d="M2073 2773 c20 -5 18 -24 -3 -31 -9 -3 -10 0 -4 9 7 12 5 12 -9 1 -9
-8 -21 -11 -26 -8 -5 4 -13 1 -17 -5 -4 -8 -3 -9 4 -5 7 4 12 2 12 -4 0 -6 5
-8 10 -5 6 3 10 0 10 -7 0 -9 3 -9 10 2 5 8 10 11 10 5 0 -5 7 1 16 13 17 25
11 43 -14 41 -15 -1 -15 -2 1 -6z"/>
<path d="M1390 2661 c0 -6 4 -12 8 -15 5 -3 9 1 9 9 0 8 -4 15 -9 15 -4 0 -8
-4 -8 -9z"/>
<path d="M1976 2643 c-6 -14 -5 -15 5 -6 7 7 10 15 7 18 -3 3 -9 -2 -12 -12z"/>
<path d="M3595 2650 c3 -5 8 -10 11 -10 2 0 4 5 4 10 0 6 -5 10 -11 10 -5 0
-7 -4 -4 -10z"/>
<path d="M3619 2643 c-1 -7 -2 -27 -3 -45 0 -17 -7 -33 -14 -36 -6 -2 -9 -8
-6 -14 8 -13 38 31 40 59 1 24 -15 58 -17 36z"/>
<path d="M2996 2581 c-4 -5 -2 -12 3 -15 5 -4 12 -2 15 3 4 5 2 12 -3 15 -5 4
-12 2 -15 -3z"/>
<path d="M3610 2526 c0 -2 7 -6 15 -10 8 -3 15 -1 15 4 0 6 -7 10 -15 10 -8 0
-15 -2 -15 -4z"/>
<path d="M1390 2500 c0 -5 5 -10 11 -10 5 0 7 5 4 10 -3 6 -8 10 -11 10 -2 0
-4 -4 -4 -10z"/>
<path d="M1984 2469 c-4 -8 -3 -9 4 -5 19 11 14 -5 -5 -21 -16 -13 -16 -13 5
-3 12 6 22 15 22 20 0 15 -18 21 -26 9z"/>
<path d="M1987 2416 c-3 -8 -3 -17 1 -20 3 -4 7 -14 8 -22 2 -11 -3 -14 -14
-10 -14 5 -14 3 2 -8 10 -9 15 -20 10 -27 -4 -8 -3 -10 4 -5 7 4 12 2 12 -3 0
-6 7 -11 16 -11 9 0 14 6 11 13 -2 6 -10 11 -16 9 -7 -1 -10 7 -7 23 3 13 1
27 -4 30 -5 3 -7 14 -5 25 4 23 -10 27 -18 6z"/>
<path d="M3595 2420 c-3 -5 -1 -10 4 -10 6 0 11 5 11 10 0 6 -2 10 -4 10 -3 0
-8 -4 -11 -10z"/>
<path d="M3006 2317 c3 -10 9 -15 12 -12 3 3 0 11 -7 18 -10 9 -11 8 -5 -6z"/>
<path d="M1986 2302 c-3 -4 4 -9 15 -9 23 -2 25 3 4 10 -8 4 -16 3 -19 -1z"/>
<path d="M2020 2283 c-13 -15 -12 -16 3 -10 9 3 19 2 22 -3 4 -6 2 -10 -3 -10
-5 0 -9 -7 -9 -15 0 -8 4 -15 9 -15 4 0 8 7 8 17 0 14 2 14 20 -2 25 -22 27
-43 3 -24 -16 11 -16 11 -5 -1 7 -8 18 -15 25 -15 7 0 12 -12 11 -27 0 -22 3
-25 14 -16 11 9 13 9 11 -3 -3 -15 21 -59 33 -59 13 0 1 32 -24 60 -15 17 -21
30 -15 30 7 0 4 5 -5 11 -9 5 -15 16 -12 23 3 8 0 17 -5 21 -6 3 -9 10 -6 15
3 4 -2 10 -10 14 -8 3 -15 0 -15 -6 0 -7 -5 -6 -15 2 -8 7 -12 16 -9 21 9 15
-10 9 -26 -8z m71 -40 c13 -16 12 -17 -3 -4 -10 7 -18 15 -18 17 0 8 8 3 21
-13z m60 -110 c13 -16 12 -17 -3 -4 -10 7 -18 15 -18 17 0 8 8 3 21 -13z"/>
<path d="M1399 2263 c-1 -5 -1 -12 0 -17 1 -4 -3 -13 -8 -20 -11 -14 4 -45 16
-33 4 5 1 12 -7 17 -10 7 -11 10 -3 10 7 0 12 11 11 25 -2 24 -7 33 -9 18z"/>
<path d="M3594 2256 c1 -8 5 -18 8 -22 4 -3 5 1 4 10 -1 8 -5 18 -8 22 -4 3
-5 -1 -4 -10z"/>
<path d="M2935 2220 c-3 -6 1 -7 9 -4 18 7 21 14 7 14 -6 0 -13 -4 -16 -10z"/>
<path d="M1437 2188 c19 -21 31 -25 14 -5 -6 8 -9 16 -6 19 3 2 -2 5 -10 5
-13 0 -13 -3 2 -19z"/>
<path d="M3575 2190 c-10 -16 7 -31 23 -21 10 6 10 10 -2 20 -10 9 -16 9 -21
1z"/>
<path d="M2175 2089 c-4 -6 -5 -12 -2 -15 2 -3 7 2 10 11 7 17 1 20 -8 4z"/>
<path d="M2761 2086 c-9 -10 -8 -15 2 -19 8 -3 13 3 13 14 0 23 0 23 -15 5z"/>
<path d="M2240 2020 c-12 -7 -10 -9 7 -7 12 0 19 5 17 9 -6 10 -6 10 -24 -2z"/>
<path d="M2660 1986 c0 -2 7 -6 15 -10 8 -3 15 -1 15 4 0 6 -7 10 -15 10 -8 0
-15 -2 -15 -4z"/>
<path d="M3461 1954 c0 -11 3 -14 6 -6 3 7 2 16 -1 19 -3 4 -6 -2 -5 -13z"/>
<path d="M3471 1914 c0 -11 3 -14 6 -6 3 7 2 16 -1 19 -3 4 -6 -2 -5 -13z"/>
<path d="M1616 1861 c-3 -5 2 -15 12 -22 15 -12 16 -12 5 2 -7 9 -10 19 -6 22
3 4 4 7 0 7 -3 0 -8 -4 -11 -9z"/>
<path d="M3375 1860 c-3 -5 -1 -10 4 -10 6 0 11 5 11 10 0 6 -2 10 -4 10 -3 0
-8 -4 -11 -10z"/>
<path d="M1650 1765 c0 -8 4 -15 8 -15 5 0 9 7 9 15 0 8 -4 15 -9 15 -4 0 -8
-7 -8 -15z"/>
<path d="M1626 1753 c-6 -14 -5 -15 5 -6 7 7 10 15 7 18 -3 3 -9 -2 -12 -12z"/>
<path d="M1695 1760 c-3 -5 -1 -10 4 -10 6 0 11 5 11 10 0 6 -2 10 -4 10 -3 0
-8 -4 -11 -10z"/>
<path d="M1688 1724 c12 -8 20 -19 17 -24 -3 -5 3 -14 14 -20 14 -7 22 -7 27
2 4 6 3 13 -3 15 -6 2 -21 13 -34 24 -12 10 -27 19 -33 19 -6 0 0 -7 12 -16z
m47 -34 c3 -6 -1 -7 -9 -4 -18 7 -21 14 -7 14 6 0 13 -4 16 -10z"/>
<path d="M3268 1703 c6 -2 12 -9 12 -14 0 -6 -7 -6 -19 0 -16 9 -18 8 -13 -11
3 -14 1 -19 -6 -14 -7 4 -12 2 -12 -4 0 -17 33 -7 52 15 16 20 8 36 -17 34 -5
0 -4 -3 3 -6z"/>
<path d="M1773 1675 c0 -8 4 -12 9 -9 5 3 6 10 3 15 -9 13 -12 11 -12 -6z"/>
<path d="M1810 1619 c0 -4 6 -12 14 -18 11 -9 16 -9 22 0 4 8 3 9 -4 5 -7 -4
-12 -3 -12 3 0 5 6 11 13 14 6 3 2 4 -10 4 -13 -1 -23 -4 -23 -8z"/>
<path d="M1860 1601 c0 -5 7 -12 16 -15 14 -5 15 -4 4 9 -14 17 -20 19 -20 6z"/>
<path d="M3090 1540 c0 -4 7 -7 15 -6 23 3 26 12 5 13 -11 1 -20 -2 -20 -7z"/>
<path d="M3015 1530 c-4 -6 -11 -7 -17 -4 -7 4 -8 2 -4 -4 4 -7 2 -12 -5 -12
-7 0 -10 -2 -7 -5 8 -9 36 5 42 21 6 16 0 19 -9 4z"/>
<path d="M1977 1519 c7 -7 15 -10 18 -7 3 3 -2 9 -12 12 -14 6 -15 5 -6 -5z"/>
<path d="M2913 1495 c0 -8 4 -12 9 -9 5 3 6 10 3 15 -9 13 -12 11 -12 -6z"/>
<path d="M2135 1471 c-3 -5 -2 -12 3 -15 5 -3 9 1 9 9 0 17 -3 19 -12 6z"/>
<path d="M2835 1461 c-3 -5 -2 -12 3 -15 5 -3 9 1 9 9 0 17 -3 19 -12 6z"/>
<path d="M2863 1446 c1 -11 9 -21 17 -23 10 -3 11 -2 4 4 -6 4 -14 15 -17 23
-5 11 -6 9 -4 -4z"/>
<path d="M2210 1419 c0 -5 5 -7 10 -4 6 3 10 8 10 11 0 2 -4 4 -10 4 -5 0 -10
-5 -10 -11z"/>
<path d="M2625 1391 c-3 -5 -2 -12 3 -15 5 -3 9 1 9 9 0 17 -3 19 -12 6z"/>
<path d="M2326 1375 c4 -8 10 -12 15 -9 11 6 2 24 -11 24 -5 0 -7 -7 -4 -15z"/>
<path d="M2586 1382 c-3 -5 1 -9 9 -9 8 0 15 4 15 9 0 4 -4 8 -9 8 -6 0 -12
-4 -15 -8z"/>
<path d="M676 2981 c-4 -5 -2 -12 3 -15 5 -4 12 -2 15 3 4 5 2 12 -3 15 -5 4
-12 2 -15 -3z"/>
<path d="M1450 2076 c0 -2 8 -10 18 -17 15 -13 16 -12 3 4 -13 16 -21 21 -21
13z"/>
<path d="M3546 2074 c-5 -14 -4 -15 9 -4 17 14 19 20 6 20 -5 0 -12 -7 -15
-16z"/>
<path d="M1500 1920 c0 -5 10 -15 23 -21 22 -12 22 -12 3 10 -21 23 -26 26
-26 11z"/>
<path d="M1900 1526 c0 -2 8 -10 18 -17 15 -13 16 -12 3 4 -13 16 -21 21 -21
13z"/>
<path d="M3720 846 c0 -2 7 -9 15 -16 13 -11 14 -10 9 4 -5 14 -24 23 -24 12z"/>
<path d="M3815 841 c-10 -17 12 -21 25 -6 10 12 10 15 -3 15 -9 0 -18 -4 -22
-9z"/>
<path d="M2750 4399 c0 -5 5 -7 10 -4 6 3 10 8 10 11 0 2 -4 4 -10 4 -5 0 -10
-5 -10 -11z"/>
<path d="M2037 4384 c-8 -8 3 -34 15 -34 7 0 6 5 -1 13 -6 8 -8 17 -4 20 3 4
4 7 1 7 -2 0 -7 -3 -11 -6z"/>
<path d="M2500 4386 c0 -2 7 -6 15 -10 8 -3 15 -1 15 4 0 6 -7 10 -15 10 -8 0
-15 -2 -15 -4z"/>
<path d="M2834 4373 c5 -12 -7 -18 -28 -14 -5 1 -4 -5 4 -13 13 -16 32 -22 28
-8 -1 4 3 16 9 28 10 17 9 21 -3 21 -8 0 -13 -6 -10 -14z"/>
<path d="M1994 4369 c-3 -6 -2 -15 3 -20 5 -5 9 -1 9 11 0 23 -2 24 -12 9z"/>
<path d="M2775 4360 c-3 -5 -1 -10 4 -10 6 0 11 5 11 10 0 6 -2 10 -4 10 -3 0
-8 -4 -11 -10z"/>
<path d="M2961 4354 c0 -11 3 -14 6 -6 3 7 2 16 -1 19 -3 4 -6 -2 -5 -13z"/>
<path d="M2953 4315 c0 -8 4 -12 9 -9 4 3 8 9 8 15 0 5 -4 9 -8 9 -5 0 -9 -7
-9 -15z"/>
<path d="M3095 4291 c4 -8 2 -17 -6 -22 -9 -6 -10 -9 -2 -9 19 0 27 21 13 33
-10 9 -11 9 -5 -2z"/>
<path d="M3150 4270 c-13 -8 -13 -11 1 -25 14 -14 15 -13 15 10 0 14 0 25 0
25 -1 0 -8 -5 -16 -10z"/>
<path d="M3273 4265 c0 -8 4 -12 9 -9 5 3 6 10 3 15 -9 13 -12 11 -12 -6z"/>
<path d="M3296 4238 c3 -5 10 -6 15 -3 13 9 11 12 -6 12 -8 0 -12 -4 -9 -9z"/>
<path d="M1653 4225 c0 -8 4 -12 9 -9 5 3 6 10 3 15 -9 13 -12 11 -12 -6z"/>
<path d="M1430 4058 c0 -5 5 -6 11 -2 8 4 9 0 4 -15 -8 -27 -1 -27 17 2 14 21
14 22 -8 23 -13 1 -24 -2 -24 -8z"/>
<path d="M3716 3978 c3 -5 10 -6 15 -3 13 9 11 12 -6 12 -8 0 -12 -4 -9 -9z"/>
<path d="M1272 3918 c-7 -7 -12 -8 -12 -2 0 5 -4 3 -9 -5 -7 -10 -14 -12 -23
-5 -8 5 -5 1 6 -9 20 -18 21 -18 34 0 7 10 18 17 23 15 6 -1 8 2 4 8 -8 13 -8
13 -23 -2z"/>
<path d="M3872 3831 c-11 -7 -11 -9 0 -14 9 -3 15 1 15 9 0 8 -1 14 -1 14 -1
0 -7 -4 -14 -9z"/>
<path d="M1080 3753 c13 -27 3 -30 -17 -5 -12 15 -12 13 -2 -10 7 -16 16 -28
20 -28 15 0 17 29 3 47 -14 17 -14 16 -4 -4z"/>
<path d="M1016 3738 c3 -5 10 -6 15 -3 13 9 11 12 -6 12 -8 0 -12 -4 -9 -9z"/>
<path d="M926 3602 c-3 -5 1 -9 9 -9 8 0 12 4 9 9 -3 4 -7 8 -9 8 -2 0 -6 -4
-9 -8z"/>
<path d="M4039 3576 c0 -1 -2 -11 -5 -23 -3 -20 6 -29 21 -20 2 1 10 -6 17
-15 9 -13 17 -15 28 -8 13 8 11 11 -7 16 -13 4 -23 11 -23 18 0 6 -5 4 -10 -4
-9 -13 -10 -13 -10 1 0 8 5 20 10 25 7 7 6 11 -5 11 -8 0 -15 -1 -16 -1z"/>
<path d="M4086 3562 c-3 -5 1 -9 9 -9 8 0 12 4 9 9 -3 4 -7 8 -9 8 -2 0 -6 -4
-9 -8z"/>
<path d="M906 3532 c-2 -4 -1 -14 3 -21 6 -10 10 -9 14 3 6 16 -8 32 -17 18z"/>
<path d="M865 3520 c-3 -6 1 -7 9 -4 18 7 21 14 7 14 -6 0 -13 -4 -16 -10z"/>
<path d="M857 3493 c-10 -9 -9 -23 1 -23 5 0 9 7 9 15 0 17 -1 18 -10 8z"/>
<path d="M827 3359 c4 -14 -1 -17 -21 -15 -25 3 -26 2 -12 -19 11 -16 12 -25
4 -33 -8 -8 -5 -11 10 -9 11 0 18 5 15 10 -2 4 1 14 7 22 7 8 9 15 5 15 -4 0
-1 10 8 23 13 21 13 23 -3 23 -11 0 -15 -6 -13 -17z m-3 -40 c-3 -5 -10 -7
-15 -3 -5 3 -7 10 -3 15 3 5 10 7 15 3 5 -3 7 -10 3 -15z"/>
<path d="M4180 3360 c0 -5 5 -10 11 -10 5 0 7 5 4 10 -3 6 -8 10 -11 10 -2 0
-4 -4 -4 -10z"/>
<path d="M735 3291 c-3 -5 -2 -12 3 -15 5 -3 9 1 9 9 0 17 -3 19 -12 6z"/>
<path d="M727 3150 c-16 -20 -12 -27 8 -12 9 6 19 32 12 32 -1 0 -10 -9 -20
-20z"/>
<path d="M4308 3083 c6 -2 9 -10 6 -15 -4 -7 -2 -8 5 -4 13 9 5 26 -12 25 -9
0 -8 -2 1 -6z"/>
<path d="M693 3055 c0 -8 4 -12 9 -9 4 3 8 9 8 15 0 5 -4 9 -8 9 -5 0 -9 -7
-9 -15z"/>
<path d="M4312 3023 c-28 -31 -17 -47 18 -27 24 14 24 15 2 8 -23 -6 -23 -6
-7 20 22 33 16 33 -13 -1z"/>
<path d="M4350 2990 c-9 -6 -10 -10 -3 -10 6 0 15 5 18 10 8 12 4 12 -15 0z"/>
<path d="M4370 2946 c0 -2 7 -7 16 -10 8 -3 12 -2 9 4 -6 10 -25 14 -25 6z"/>
<path d="M4375 2880 c-3 -5 -1 -10 4 -10 6 0 11 5 11 10 0 6 -2 10 -4 10 -3 0
-8 -4 -11 -10z"/>
<path d="M631 2841 c-11 -19 -5 -31 13 -31 6 0 4 5 -4 10 -8 5 -10 10 -4 10 6
0 11 7 11 15 0 20 -4 19 -16 -4z"/>
<path d="M623 2213 c4 -6 4 -13 0 -16 -5 -2 -3 -2 4 -1 21 5 24 -14 3 -21 -27
-8 -25 -20 3 -22 12 0 16 1 9 4 -10 4 -9 8 3 17 15 11 14 14 -6 31 -12 11 -19
15 -16 8z"/>
<path d="M4381 2166 c-9 -10 -8 -15 2 -19 8 -3 13 3 13 14 0 23 0 23 -15 5z"/>
<path d="M634 2111 c0 -16 4 -27 8 -25 11 7 10 -4 -3 -28 -6 -11 -7 -18 -1
-14 5 3 15 -8 22 -24 10 -24 15 -28 26 -19 10 8 11 15 4 24 -5 6 -7 15 -2 19
4 4 -1 12 -11 17 -9 6 -15 14 -12 20 4 5 1 9 -6 9 -10 0 -10 3 -1 12 8 8 9 15
1 25 -18 21 -27 15 -25 -16z m21 10 c3 -5 2 -12 -3 -15 -5 -3 -9 1 -9 9 0 17
3 19 12 6z m20 -79 c-3 -3 0 -11 6 -19 7 -7 7 -13 2 -13 -5 0 -15 11 -21 25
-16 34 -15 40 3 25 9 -7 13 -15 10 -18z"/>
<path d="M620 2026 c0 -2 8 -10 18 -17 15 -13 16 -12 3 4 -13 16 -21 21 -21
13z"/>
<path d="M650 1980 c0 -5 5 -10 11 -10 5 0 7 5 4 10 -3 6 -8 10 -11 10 -2 0
-4 -4 -4 -10z"/>
<path d="M675 1940 c3 -5 8 -10 11 -10 2 0 4 5 4 10 0 6 -5 10 -11 10 -5 0 -7
-4 -4 -10z"/>
<path d="M696 1914 c-9 -24 -7 -31 5 -11 6 9 15 14 21 11 7 -4 8 -2 4 4 -10
17 -23 15 -30 -4z"/>
<path d="M775 1649 c-4 -6 -5 -12 -2 -15 2 -3 7 2 10 11 7 17 1 20 -8 4z"/>
<path d="M796 1623 c-6 -14 -5 -15 5 -6 7 7 10 15 7 18 -3 3 -9 -2 -12 -12z"/>
<path d="M845 1597 c-15 -12 -16 -15 -4 -22 8 -5 11 -5 7 0 -4 4 0 14 10 21
23 18 11 18 -13 1z"/>
<path d="M4381 1526 c-9 -10 -8 -15 2 -19 8 -3 13 3 13 14 0 23 0 23 -15 5z"/>
<path d="M890 1460 c0 -5 5 -10 11 -10 5 0 7 5 4 10 -3 6 -8 10 -11 10 -2 0
-4 -4 -4 -10z"/>
<path d="M921 1444 c0 -11 3 -14 6 -6 3 7 2 16 -1 19 -3 4 -6 -2 -5 -13z"/>
<path d="M935 1420 c-3 -5 -1 -10 4 -10 6 0 11 5 11 10 0 6 -2 10 -4 10 -3 0
-8 -4 -11 -10z"/>
<path d="M1014 1329 c-3 -6 -3 -13 0 -16 3 -4 6 0 6 8 0 12 2 12 9 0 5 -8 11
-9 15 -3 3 5 -1 12 -9 16 -8 3 -17 1 -21 -5z"/>
<path d="M1116 1158 c3 -5 10 -6 15 -3 13 9 11 12 -6 12 -8 0 -12 -4 -9 -9z"/>
<path d="M1363 992 c-1 -18 1 -21 8 -11 7 12 9 12 9 -1 0 -13 2 -13 9 -1 11
17 5 38 -12 38 -7 0 -13 -12 -14 -25z"/>
<path d="M4367 1004 c-4 -4 -4 -10 -1 -15 6 -10 34 0 34 12 0 10 -24 12 -33 3z"/>
<path d="M4381 966 c-9 -11 -8 -15 5 -20 9 -4 19 -4 22 -1 3 3 0 5 -6 5 -7 0
-12 5 -12 11 0 5 5 7 12 3 7 -4 8 -3 4 4 -9 15 -11 15 -25 -2z"/>
<path d="M1447 944 c4 -11 2 -15 -4 -11 -6 4 -13 1 -16 -6 -3 -7 3 -13 13 -13
10 0 16 4 14 8 -3 4 0 9 5 9 6 1 15 2 20 3 5 0 13 5 18 9 4 5 -1 8 -12 6 -11
-2 -26 0 -32 4 -9 6 -11 3 -6 -9z"/>
<path d="M1515 840 c3 -5 8 -10 11 -10 2 0 4 5 4 10 0 6 -5 10 -11 10 -5 0 -7
-4 -4 -10z"/>
<path d="M1667 819 c7 -7 15 -10 18 -7 3 3 -2 9 -12 12 -14 6 -15 5 -6 -5z"/>
<path d="M3513 803 c-3 -7 -8 -11 -12 -8 -12 7 -52 -25 -45 -36 3 -5 10 -7 15
-3 5 3 6 10 3 16 -4 6 -1 9 7 6 8 -3 13 -14 12 -24 -1 -10 0 -14 3 -7 3 7 13
9 22 6 16 -5 16 -5 0 8 -15 12 -15 16 -2 27 11 11 14 10 14 -2 0 -8 5 -18 11
-22 8 -4 9 1 4 17 -7 21 -6 22 8 10 13 -10 14 -18 6 -35 -10 -20 -10 -20 5 -2
11 14 13 23 5 32 -6 7 -8 17 -5 22 3 6 -6 9 -20 8 -15 0 -29 -7 -31 -13z"/>
<path d="M3756 792 c-2 -4 4 -8 14 -8 10 0 16 4 14 8 -3 4 -9 8 -14 8 -5 0
-11 -4 -14 -8z"/>
<path d="M4015 790 c-4 -6 -10 -8 -15 -5 -5 3 -11 1 -14 -4 -4 -5 2 -8 11 -7
10 2 21 -2 25 -7 9 -14 40 -18 32 -5 -4 6 -1 8 7 6 8 -3 13 -12 11 -19 -2 -8
0 -11 4 -7 4 4 13 3 21 -3 23 -19 14 -1 -12 25 -14 14 -25 23 -25 20 0 -2 -9
0 -19 6 -14 7 -22 7 -26 0z m35 -15 c0 -12 -19 -12 -23 0 -4 9 -1 12 9 8 7 -3
14 -7 14 -8z"/>
<path d="M3690 780 c0 -5 5 -10 11 -10 5 0 7 5 4 10 -3 6 -8 10 -11 10 -2 0
-4 -4 -4 -10z"/>
<path d="M3993 745 c0 -8 4 -12 9 -9 5 3 6 10 3 15 -9 13 -12 11 -12 -6z"/>
<path d="M3290 740 c0 -5 5 -10 11 -10 5 0 7 5 4 10 -3 6 -8 10 -11 10 -2 0
-4 -4 -4 -10z"/>
<path d="M3626 742 c-3 -5 1 -9 9 -9 8 0 12 4 9 9 -3 4 -7 8 -9 8 -2 0 -6 -4
-9 -8z"/>
<path d="M4395 739 c-4 -6 -5 -12 -2 -15 2 -3 7 2 10 11 7 17 1 20 -8 4z"/>
<path d="M4363 728 c5 -15 -4 -24 -17 -15 -2 1 -13 -6 -23 -16 -11 -9 -23 -14
-28 -10 -4 5 -5 2 -1 -4 5 -9 0 -13 -13 -13 -11 0 -22 -4 -25 -9 -7 -11 44 -9
62 2 7 5 13 4 13 -2 3 -26 4 -30 11 -36 3 -4 5 1 4 12 -4 24 12 55 25 48 5 -4
6 -12 2 -18 -4 -7 0 -6 10 2 20 16 22 22 5 19 -7 -2 -13 7 -14 20 -1 12 -5 26
-9 30 -5 4 -5 -1 -2 -10z m-15 -45 c-6 -7 -13 -11 -16 -8 -3 3 -12 -1 -21 -7
-12 -10 -12 -7 2 8 9 11 24 21 32 21 11 0 12 -4 3 -14z"/>
<path d="M1880 718 c-13 -8 -12 -9 1 -5 9 3 22 0 28 -6 6 -6 11 -7 11 -3 0 5
7 3 15 -4 10 -9 15 -9 15 -1 0 6 4 11 9 11 6 0 6 -12 1 -30 -5 -19 -5 -28 1
-25 5 4 9 15 9 26 0 11 5 17 10 14 6 -4 7 -12 3 -18 -4 -7 0 -6 10 2 10 8 17
9 17 3 0 -6 -8 -16 -17 -21 -15 -9 -16 -10 -2 -11 9 0 21 12 27 26 7 14 8 23
2 19 -5 -3 -10 -1 -10 5 0 7 -7 10 -15 7 -8 -4 -17 -2 -21 4 -3 5 -15 7 -26 3
-15 -5 -19 -3 -13 7 6 11 5 12 -5 2 -9 -8 -18 -9 -25 -3 -6 5 -16 5 -25 -2z"/>
<path d="M3090 685 c-7 -8 -16 -13 -20 -10 -13 8 -21 -11 -13 -31 6 -15 7 -14
15 6 7 18 11 20 23 10 12 -10 15 -10 15 0 0 9 4 9 17 -1 14 -12 14 -10 -1 14
-21 32 -20 31 -36 12z m20 -5 c0 -5 -5 -10 -11 -10 -5 0 -7 5 -4 10 3 6 8 10
11 10 2 0 4 -4 4 -10z"/>
<path d="M1910 679 c0 -5 5 -7 10 -4 6 3 10 8 10 11 0 2 -4 4 -10 4 -5 0 -10
-5 -10 -11z"/>
<path d="M2905 673 l-20 -16 20 8 c11 4 25 8 32 8 7 0 10 4 7 9 -7 12 -16 10
-39 -9z"/>
<path d="M2984 673 c2 -10 -1 -21 -6 -24 -6 -4 -6 -9 1 -13 6 -4 11 -2 11 3 0
6 5 11 10 11 6 0 10 -8 10 -17 0 -13 4 -12 14 7 15 28 4 50 -24 50 -12 0 -17
-6 -16 -17z m38 -7 c7 4 8 2 4 -4 -4 -6 -13 -9 -21 -6 -8 4 -12 11 -8 17 5 8
8 7 11 -1 2 -7 9 -9 14 -6z"/>
<path d="M2100 662 c0 -7 5 -12 11 -12 5 0 8 -4 5 -8 -2 -4 -1 -14 3 -21 7
-10 9 -10 14 2 3 8 -3 23 -14 33 -11 10 -19 12 -19 6z"/>
<path d="M2020 651 c0 -6 4 -13 10 -16 6 -3 7 1 4 9 -7 18 -14 21 -14 7z"/>
<path d="M2206 642 c-4 -4 -13 -7 -18 -7 -6 0 -13 -7 -15 -15 -4 -13 -3 -13 6
0 10 13 11 13 12 0 1 -8 1 -19 0 -23 -1 -5 3 -6 8 -2 6 3 8 11 5 19 -3 7 2 13
11 13 8 0 15 -4 15 -9 0 -5 5 -6 10 -3 6 3 10 11 10 17 0 6 -3 8 -7 5 -3 -4
-11 -2 -18 3 -7 5 -15 6 -19 2z"/>
<path d="M2055 620 c3 -5 8 -10 11 -10 2 0 4 5 4 10 0 6 -5 10 -11 10 -5 0 -7
-4 -4 -10z"/>
<path d="M2090 620 c0 -5 5 -10 11 -10 5 0 7 5 4 10 -3 6 -8 10 -11 10 -2 0
-4 -4 -4 -10z"/>
<path d="M2485 620 c-3 -5 -1 -10 4 -10 6 0 11 5 11 10 0 6 -2 10 -4 10 -3 0
-8 -4 -11 -10z"/>
<path d="M2255 600 c3 -5 8 -10 11 -10 2 0 4 5 4 10 0 6 -5 10 -11 10 -5 0 -7
-4 -4 -10z"/>
</g>
</svg>
